<mxfile host="app.diagrams.net" modified="2022-12-08T15:43:38.922Z" agent="5.0 (Windows NT 10.0; WOW64) AppleWebKit/537.36 (KHTML, like Gecko) Chrome/108.0.0.0 Safari/537.36" etag="Tsljx5BSnjii9HqWA94R" version="20.6.0" type="github" pages="3">
  <diagram name="Simplified" id="1aNk9hnZOlQ7_WjEDchH">
    <mxGraphModel dx="1421" dy="777" grid="1" gridSize="10" guides="1" tooltips="1" connect="1" arrows="1" fold="1" page="1" pageScale="1" pageWidth="850" pageHeight="1100" math="0" shadow="0">
      <root>
        <mxCell id="ScCZQf0IAp3NMGlHaYm5-0" />
        <mxCell id="ScCZQf0IAp3NMGlHaYm5-1" parent="ScCZQf0IAp3NMGlHaYm5-0" />
        <mxCell id="ScCZQf0IAp3NMGlHaYm5-2" value="DataRequest" style="swimlane;childLayout=stackLayout;horizontal=1;startSize=30;horizontalStack=0;rounded=1;fontSize=14;fontStyle=0;strokeWidth=2;resizeParent=0;resizeLast=1;shadow=0;dashed=0;align=center;fillColor=#ffe6cc;strokeColor=#d79b00;" parent="ScCZQf0IAp3NMGlHaYm5-1" vertex="1">
          <mxGeometry x="60" y="290" width="275" height="250" as="geometry" />
        </mxCell>
        <mxCell id="ScCZQf0IAp3NMGlHaYm5-3" value="+DataRequest_ID&#xa;+Name&#xa;+Status&#xa;+Protocol_ID&#xa;+Project_ID&#xa;+GitLabIssue_ID&#xa;+Visibility&#xa;+ MUCH MUCH MORE!!" style="align=left;strokeColor=none;fillColor=none;spacingLeft=4;fontSize=12;verticalAlign=top;resizable=0;rotatable=0;part=1;" parent="ScCZQf0IAp3NMGlHaYm5-2" vertex="1">
          <mxGeometry y="30" width="275" height="220" as="geometry" />
        </mxCell>
        <mxCell id="ScCZQf0IAp3NMGlHaYm5-4" value="Protocol" style="swimlane;childLayout=stackLayout;horizontal=1;startSize=30;horizontalStack=0;rounded=1;fontSize=14;fontStyle=0;strokeWidth=2;resizeParent=0;resizeLast=1;shadow=0;dashed=0;align=center;fillColor=#ffe6cc;strokeColor=#d79b00;" parent="ScCZQf0IAp3NMGlHaYm5-1" vertex="1">
          <mxGeometry x="638.75" y="210" width="230" height="190" as="geometry" />
        </mxCell>
        <mxCell id="ScCZQf0IAp3NMGlHaYm5-5" value="+Protocol_ID&#xa;+IRAP_ID&#xa;+Name&#xa;+Visibility" style="align=left;strokeColor=none;fillColor=none;spacingLeft=4;fontSize=12;verticalAlign=top;resizable=0;rotatable=0;part=1;" parent="ScCZQf0IAp3NMGlHaYm5-4" vertex="1">
          <mxGeometry y="30" width="230" height="160" as="geometry" />
        </mxCell>
        <mxCell id="ScCZQf0IAp3NMGlHaYm5-6" value="Cohort" style="swimlane;childLayout=stackLayout;horizontal=1;startSize=30;horizontalStack=0;rounded=1;fontSize=14;fontStyle=0;strokeWidth=2;resizeParent=0;resizeLast=1;shadow=0;dashed=0;align=center;fillColor=#ffe6cc;strokeColor=#d79b00;" parent="ScCZQf0IAp3NMGlHaYm5-1" vertex="1">
          <mxGeometry x="638.75" y="440" width="230" height="200" as="geometry" />
        </mxCell>
        <mxCell id="ScCZQf0IAp3NMGlHaYm5-7" value="+Cohort_ID&#xa;+Source&#xa;+Name&#xa;+Visibility" style="align=left;strokeColor=none;fillColor=none;spacingLeft=4;fontSize=12;verticalAlign=top;resizable=0;rotatable=0;part=1;" parent="ScCZQf0IAp3NMGlHaYm5-6" vertex="1">
          <mxGeometry y="30" width="230" height="170" as="geometry" />
        </mxCell>
        <mxCell id="ScCZQf0IAp3NMGlHaYm5-8" style="edgeStyle=orthogonalEdgeStyle;rounded=0;orthogonalLoop=1;jettySize=auto;html=1;exitX=0.5;exitY=0;exitDx=0;exitDy=0;entryX=1;entryY=0.5;entryDx=0;entryDy=0;startArrow=ERzeroToMany;startFill=0;endArrow=ERzeroToMany;endFill=0;endSize=10;startSize=10;strokeWidth=2;strokeColor=#0000FF;" parent="ScCZQf0IAp3NMGlHaYm5-1" source="ScCZQf0IAp3NMGlHaYm5-10" target="ScCZQf0IAp3NMGlHaYm5-3" edge="1">
          <mxGeometry relative="1" as="geometry">
            <mxPoint x="718.75" y="820" as="targetPoint" />
            <Array as="points">
              <mxPoint x="718.75" y="720" />
              <mxPoint x="493.75" y="720" />
              <mxPoint x="493.75" y="430" />
            </Array>
          </mxGeometry>
        </mxCell>
        <mxCell id="ScCZQf0IAp3NMGlHaYm5-9" style="edgeStyle=orthogonalEdgeStyle;rounded=0;orthogonalLoop=1;jettySize=auto;html=1;exitX=0.75;exitY=0;exitDx=0;exitDy=0;entryX=0.566;entryY=1.009;entryDx=0;entryDy=0;startArrow=ERzeroToMany;startFill=0;endArrow=ERzeroToMany;endFill=0;entryPerimeter=0;endSize=10;startSize=10;strokeColor=#0000FF;strokeWidth=2;" parent="ScCZQf0IAp3NMGlHaYm5-1" source="ScCZQf0IAp3NMGlHaYm5-10" target="ScCZQf0IAp3NMGlHaYm5-7" edge="1">
          <mxGeometry relative="1" as="geometry">
            <mxPoint x="1068.75" y="580" as="targetPoint" />
            <Array as="points">
              <mxPoint x="778.75" y="770" />
              <mxPoint x="768.75" y="770" />
            </Array>
          </mxGeometry>
        </mxCell>
        <mxCell id="ScCZQf0IAp3NMGlHaYm5-10" value="Person" style="swimlane;childLayout=stackLayout;horizontal=1;startSize=30;horizontalStack=0;rounded=1;fontSize=14;fontStyle=0;strokeWidth=2;resizeParent=0;resizeLast=1;shadow=0;dashed=0;align=center;fillColor=#d5e8d4;strokeColor=#82b366;" parent="ScCZQf0IAp3NMGlHaYm5-1" vertex="1">
          <mxGeometry x="598.75" y="910" width="240" height="200" as="geometry" />
        </mxCell>
        <mxCell id="ScCZQf0IAp3NMGlHaYm5-11" value="+Person_ID (IDENTITY, arbitrary)&#xa;+Name&#xa;+Email&#xa;+Institution_ID&#xa;+AstrologicalSign&#xa;+FavoriteColor&#xa;+other interesting stuff about a &quot;Person&quot; &#xa;   as a system object" style="align=left;strokeColor=none;fillColor=none;spacingLeft=4;fontSize=12;verticalAlign=top;resizable=0;rotatable=0;part=1;" parent="ScCZQf0IAp3NMGlHaYm5-10" vertex="1">
          <mxGeometry y="30" width="240" height="170" as="geometry" />
        </mxCell>
        <mxCell id="ScCZQf0IAp3NMGlHaYm5-12" style="edgeStyle=orthogonalEdgeStyle;rounded=0;orthogonalLoop=1;jettySize=auto;html=1;exitX=0.5;exitY=0;exitDx=0;exitDy=0;startArrow=ERmandOne;startFill=0;endArrow=ERzeroToMany;endFill=0;entryX=0.5;entryY=1;entryDx=0;entryDy=0;endSize=10;startSize=10;" parent="ScCZQf0IAp3NMGlHaYm5-1" source="ScCZQf0IAp3NMGlHaYm5-13" target="ScCZQf0IAp3NMGlHaYm5-31" edge="1">
          <mxGeometry relative="1" as="geometry">
            <mxPoint x="848.75" y="1110" as="targetPoint" />
          </mxGeometry>
        </mxCell>
        <mxCell id="ScCZQf0IAp3NMGlHaYm5-13" value="User" style="swimlane;childLayout=stackLayout;horizontal=1;startSize=30;horizontalStack=0;rounded=1;fontSize=14;fontStyle=0;strokeWidth=2;resizeParent=0;resizeLast=1;shadow=0;dashed=0;align=center;fillColor=#dae8fc;strokeColor=#6c8ebf;" parent="ScCZQf0IAp3NMGlHaYm5-1" vertex="1">
          <mxGeometry x="1088.75" y="930" width="210" height="200" as="geometry" />
        </mxCell>
        <mxCell id="ScCZQf0IAp3NMGlHaYm5-14" value="+User_ID&#xa;+Person_ID&#xa;+blazerID&#xa;+UABMC_ID&#xa;+other stuff all about system access" style="align=left;strokeColor=none;fillColor=none;spacingLeft=4;fontSize=12;verticalAlign=top;resizable=0;rotatable=0;part=1;" parent="ScCZQf0IAp3NMGlHaYm5-13" vertex="1">
          <mxGeometry y="30" width="210" height="170" as="geometry" />
        </mxCell>
        <mxCell id="ScCZQf0IAp3NMGlHaYm5-15" style="edgeStyle=orthogonalEdgeStyle;rounded=0;orthogonalLoop=1;jettySize=auto;html=1;exitX=1;exitY=0;exitDx=0;exitDy=0;entryX=1;entryY=0;entryDx=0;entryDy=0;startArrow=ERzeroToMany;startFill=0;endArrow=ERzeroToMany;endFill=0;endSize=10;startSize=10;" parent="ScCZQf0IAp3NMGlHaYm5-1" source="ScCZQf0IAp3NMGlHaYm5-17" target="ScCZQf0IAp3NMGlHaYm5-5" edge="1">
          <mxGeometry relative="1" as="geometry">
            <Array as="points">
              <mxPoint x="1048.75" y="1280" />
              <mxPoint x="1048.75" y="240" />
            </Array>
            <mxPoint x="1308.75" y="310" as="targetPoint" />
          </mxGeometry>
        </mxCell>
        <mxCell id="ScCZQf0IAp3NMGlHaYm5-16" value="Project" style="swimlane;childLayout=stackLayout;horizontal=1;startSize=30;horizontalStack=0;rounded=1;fontSize=14;fontStyle=0;strokeWidth=2;resizeParent=0;resizeLast=1;shadow=0;dashed=0;align=center;fillColor=#f5f5f5;strokeColor=#666666;fontColor=#333333;" parent="ScCZQf0IAp3NMGlHaYm5-1" vertex="1">
          <mxGeometry x="598.75" y="1250" width="260" height="210" as="geometry" />
        </mxCell>
        <mxCell id="ScCZQf0IAp3NMGlHaYm5-17" value="+Project_ID&#xa;+Name&#xa;+Description&#xa;+ProjectType" style="align=left;strokeColor=none;fillColor=none;spacingLeft=4;fontSize=12;verticalAlign=top;resizable=0;rotatable=0;part=1;" parent="ScCZQf0IAp3NMGlHaYm5-16" vertex="1">
          <mxGeometry y="30" width="260" height="180" as="geometry" />
        </mxCell>
        <mxCell id="ScCZQf0IAp3NMGlHaYm5-18" style="edgeStyle=orthogonalEdgeStyle;rounded=0;orthogonalLoop=1;jettySize=auto;html=1;exitX=0;exitY=0;exitDx=0;exitDy=0;entryX=0.75;entryY=0;entryDx=0;entryDy=0;startArrow=ERzeroToOne;startFill=0;endArrow=ERzeroToMany;endFill=0;strokeWidth=1;endSize=10;startSize=10;" parent="ScCZQf0IAp3NMGlHaYm5-1" source="ScCZQf0IAp3NMGlHaYm5-5" target="ScCZQf0IAp3NMGlHaYm5-2" edge="1">
          <mxGeometry relative="1" as="geometry">
            <Array as="points">
              <mxPoint x="266.75" y="240" />
            </Array>
          </mxGeometry>
        </mxCell>
        <mxCell id="ScCZQf0IAp3NMGlHaYm5-19" style="edgeStyle=orthogonalEdgeStyle;rounded=0;orthogonalLoop=1;jettySize=auto;html=1;startArrow=ERzeroToMany;startFill=0;endArrow=ERzeroToOne;endFill=0;entryX=0;entryY=0.75;entryDx=0;entryDy=0;exitX=0.25;exitY=1;exitDx=0;exitDy=0;endSize=10;startSize=10;" parent="ScCZQf0IAp3NMGlHaYm5-1" source="ScCZQf0IAp3NMGlHaYm5-3" target="ScCZQf0IAp3NMGlHaYm5-17" edge="1">
          <mxGeometry relative="1" as="geometry">
            <Array as="points">
              <mxPoint x="128.75" y="830" />
              <mxPoint x="63.75" y="830" />
              <mxPoint x="63.75" y="1415" />
            </Array>
            <mxPoint x="278.75" y="760" as="sourcePoint" />
            <mxPoint x="698.75" y="1550" as="targetPoint" />
          </mxGeometry>
        </mxCell>
        <mxCell id="ScCZQf0IAp3NMGlHaYm5-20" style="edgeStyle=orthogonalEdgeStyle;rounded=0;orthogonalLoop=1;jettySize=auto;html=1;exitX=1;exitY=0.75;exitDx=0;exitDy=0;startArrow=ERmandOne;startFill=0;endArrow=ERzeroToOne;endFill=0;entryX=-0.014;entryY=0.629;entryDx=0;entryDy=0;entryPerimeter=0;endSize=10;startSize=10;" parent="ScCZQf0IAp3NMGlHaYm5-1" source="ScCZQf0IAp3NMGlHaYm5-11" target="ScCZQf0IAp3NMGlHaYm5-14" edge="1">
          <mxGeometry relative="1" as="geometry">
            <mxPoint x="978.75" y="1110" as="targetPoint" />
            <Array as="points">
              <mxPoint x="1085.75" y="1068" />
            </Array>
          </mxGeometry>
        </mxCell>
        <mxCell id="ScCZQf0IAp3NMGlHaYm5-21" style="edgeStyle=orthogonalEdgeStyle;rounded=0;orthogonalLoop=1;jettySize=auto;html=1;exitX=0.5;exitY=0;exitDx=0;exitDy=0;startArrow=ERzeroToMany;startFill=0;endArrow=ERoneToMany;endFill=0;entryX=0.5;entryY=1;entryDx=0;entryDy=0;endSize=10;startSize=10;" parent="ScCZQf0IAp3NMGlHaYm5-1" source="ScCZQf0IAp3NMGlHaYm5-22" target="ScCZQf0IAp3NMGlHaYm5-17" edge="1">
          <mxGeometry relative="1" as="geometry">
            <mxPoint x="898.75" y="1940" as="targetPoint" />
          </mxGeometry>
        </mxCell>
        <mxCell id="ScCZQf0IAp3NMGlHaYm5-22" value="Asset" style="swimlane;childLayout=stackLayout;horizontal=1;startSize=30;horizontalStack=0;rounded=1;fontSize=14;fontStyle=0;strokeWidth=2;resizeParent=0;resizeLast=1;shadow=0;dashed=0;align=center;fillColor=#f5f5f5;strokeColor=#666666;fontColor=#333333;" parent="ScCZQf0IAp3NMGlHaYm5-1" vertex="1">
          <mxGeometry x="598.75" y="1550" width="260" height="210" as="geometry" />
        </mxCell>
        <mxCell id="ScCZQf0IAp3NMGlHaYm5-23" value="+Asset_ID&#xa;+Type&#xa;+ContentType&#xa;+Name&#xa;+URL&#xa;+other standard Asset columns" style="align=left;strokeColor=none;fillColor=none;spacingLeft=4;fontSize=12;verticalAlign=top;resizable=0;rotatable=0;part=1;" parent="ScCZQf0IAp3NMGlHaYm5-22" vertex="1">
          <mxGeometry y="30" width="260" height="180" as="geometry" />
        </mxCell>
        <mxCell id="ScCZQf0IAp3NMGlHaYm5-24" style="edgeStyle=orthogonalEdgeStyle;rounded=0;orthogonalLoop=1;jettySize=auto;html=1;exitX=1;exitY=0.25;exitDx=0;exitDy=0;entryX=1;entryY=0.5;entryDx=0;entryDy=0;startArrow=ERzeroToMany;startFill=0;endArrow=ERzeroToMany;endFill=0;endSize=10;startSize=10;strokeColor=#0000FF;strokeWidth=2;" parent="ScCZQf0IAp3NMGlHaYm5-1" source="ScCZQf0IAp3NMGlHaYm5-11" target="ScCZQf0IAp3NMGlHaYm5-5" edge="1">
          <mxGeometry relative="1" as="geometry">
            <Array as="points">
              <mxPoint x="1008.75" y="983" />
              <mxPoint x="1008.75" y="320" />
            </Array>
            <mxPoint x="1158.75" y="62.5" as="targetPoint" />
          </mxGeometry>
        </mxCell>
        <mxCell id="ScCZQf0IAp3NMGlHaYm5-29" style="edgeStyle=orthogonalEdgeStyle;rounded=0;orthogonalLoop=1;jettySize=auto;html=1;exitX=0;exitY=0.5;exitDx=0;exitDy=0;entryX=1;entryY=0.25;entryDx=0;entryDy=0;startArrow=ERzeroToMany;startFill=0;endArrow=ERzeroToMany;endFill=0;endSize=10;startSize=10;" parent="ScCZQf0IAp3NMGlHaYm5-1" source="ScCZQf0IAp3NMGlHaYm5-7" target="ScCZQf0IAp3NMGlHaYm5-3" edge="1">
          <mxGeometry relative="1" as="geometry">
            <Array as="points">
              <mxPoint x="573.75" y="555" />
              <mxPoint x="573.75" y="375" />
            </Array>
            <mxPoint x="378.75" y="516.02" as="sourcePoint" />
          </mxGeometry>
        </mxCell>
        <mxCell id="ScCZQf0IAp3NMGlHaYm5-30" style="edgeStyle=orthogonalEdgeStyle;rounded=0;orthogonalLoop=1;jettySize=auto;html=1;entryX=0.25;entryY=1;entryDx=0;entryDy=0;startArrow=ERzeroToMany;startFill=0;endArrow=ERzeroToMany;endFill=0;exitX=0.25;exitY=0;exitDx=0;exitDy=0;endSize=10;startSize=10;strokeColor=#0000FF;strokeWidth=2;" parent="ScCZQf0IAp3NMGlHaYm5-1" source="ScCZQf0IAp3NMGlHaYm5-16" target="ScCZQf0IAp3NMGlHaYm5-11" edge="1">
          <mxGeometry relative="1" as="geometry">
            <mxPoint x="778.75" y="1560" as="sourcePoint" />
            <Array as="points">
              <mxPoint x="663.75" y="1180" />
              <mxPoint x="658.75" y="1180" />
            </Array>
          </mxGeometry>
        </mxCell>
        <mxCell id="ScCZQf0IAp3NMGlHaYm5-31" value="&lt;font style=&quot;font-size: 16px;&quot;&gt;&lt;b&gt;All Tables/Audit Logs&lt;/b&gt;&lt;/font&gt;&lt;br&gt;(CreatedBy, UpdatedBy, Logins,&amp;nbsp;&lt;br&gt;Downloads, Admin Activity, etc)" style="whiteSpace=wrap;html=1;align=center;" parent="ScCZQf0IAp3NMGlHaYm5-1" vertex="1">
          <mxGeometry x="1103.75" y="730" width="180" height="90" as="geometry" />
        </mxCell>
        <mxCell id="ScCZQf0IAp3NMGlHaYm5-37" style="edgeStyle=orthogonalEdgeStyle;rounded=0;orthogonalLoop=1;jettySize=auto;html=1;entryX=1;entryY=0.75;entryDx=0;entryDy=0;startArrow=ERzeroToMany;startFill=0;endArrow=ERzeroToMany;endFill=0;exitX=0.615;exitY=0.005;exitDx=0;exitDy=0;exitPerimeter=0;endSize=10;startSize=10;" parent="ScCZQf0IAp3NMGlHaYm5-1" source="ScCZQf0IAp3NMGlHaYm5-16" target="ScCZQf0IAp3NMGlHaYm5-7" edge="1">
          <mxGeometry relative="1" as="geometry">
            <Array as="points">
              <mxPoint x="758.75" y="1150" />
              <mxPoint x="928.75" y="1150" />
              <mxPoint x="928.75" y="598" />
            </Array>
            <mxPoint x="888.75" y="1560" as="sourcePoint" />
            <mxPoint x="1028.75" y="752.5" as="targetPoint" />
          </mxGeometry>
        </mxCell>
        <mxCell id="ScCZQf0IAp3NMGlHaYm5-38" value="ClinicalDataSet" style="swimlane;childLayout=stackLayout;horizontal=1;startSize=30;horizontalStack=0;rounded=1;fontSize=14;fontStyle=0;strokeWidth=2;resizeParent=0;resizeLast=1;shadow=0;dashed=0;align=center;fillColor=#ffe6cc;strokeColor=#d79b00;" parent="ScCZQf0IAp3NMGlHaYm5-1" vertex="1">
          <mxGeometry x="188.75" y="610" width="200" height="160" as="geometry" />
        </mxCell>
        <mxCell id="ScCZQf0IAp3NMGlHaYm5-39" value="+ClinicalDataSet_ID&#xa;+DataRequest_ID&#xa;+FileName&#xa;+ContentType&#xa;+Description&#xa;+DataSetType (PHI, LDS, etc)&#xa;+IsFinalDeliverable&#xa;+HasBeenReviewed" style="align=left;strokeColor=none;fillColor=none;spacingLeft=4;fontSize=12;verticalAlign=top;resizable=0;rotatable=0;part=1;" parent="ScCZQf0IAp3NMGlHaYm5-38" vertex="1">
          <mxGeometry y="30" width="200" height="130" as="geometry" />
        </mxCell>
        <mxCell id="ScCZQf0IAp3NMGlHaYm5-40" style="edgeStyle=orthogonalEdgeStyle;rounded=0;orthogonalLoop=1;jettySize=auto;html=1;entryX=0.5;entryY=0;entryDx=0;entryDy=0;startArrow=ERzeroToOne;startFill=0;endArrow=ERzeroToMany;endFill=0;endSize=10;startSize=10;exitX=0.576;exitY=0.995;exitDx=0;exitDy=0;exitPerimeter=0;" parent="ScCZQf0IAp3NMGlHaYm5-1" source="ScCZQf0IAp3NMGlHaYm5-3" target="ScCZQf0IAp3NMGlHaYm5-38" edge="1">
          <mxGeometry relative="1" as="geometry" />
        </mxCell>
        <mxCell id="ScCZQf0IAp3NMGlHaYm5-43" value="EventLog" style="swimlane;childLayout=stackLayout;horizontal=1;startSize=30;horizontalStack=0;rounded=1;fontSize=14;fontStyle=0;strokeWidth=2;resizeParent=0;resizeLast=1;shadow=0;dashed=0;align=center;fillColor=#fff2cc;strokeColor=#d6b656;" parent="ScCZQf0IAp3NMGlHaYm5-1" vertex="1">
          <mxGeometry x="1333.75" y="490" width="160" height="120" as="geometry" />
        </mxCell>
        <mxCell id="ScCZQf0IAp3NMGlHaYm5-44" value="+EventID&#xa;+SourceModule_ID&#xa;+Message&#xa;+StackTrace&#xa;+EventDate" style="align=left;strokeColor=none;fillColor=none;spacingLeft=4;fontSize=12;verticalAlign=top;resizable=0;rotatable=0;part=1;" parent="ScCZQf0IAp3NMGlHaYm5-43" vertex="1">
          <mxGeometry y="30" width="160" height="90" as="geometry" />
        </mxCell>
        <mxCell id="ScCZQf0IAp3NMGlHaYm5-45" value="AppSettings" style="swimlane;childLayout=stackLayout;horizontal=1;startSize=30;horizontalStack=0;rounded=1;fontSize=14;fontStyle=0;strokeWidth=2;resizeParent=0;resizeLast=1;shadow=0;dashed=0;align=center;fillColor=#fff2cc;strokeColor=#d6b656;" parent="ScCZQf0IAp3NMGlHaYm5-1" vertex="1">
          <mxGeometry x="1333.75" y="660" width="160" height="120" as="geometry" />
        </mxCell>
        <mxCell id="ScCZQf0IAp3NMGlHaYm5-46" value="+AppSettingID&#xa;+Name&#xa;+Value" style="align=left;strokeColor=none;fillColor=none;spacingLeft=4;fontSize=12;verticalAlign=top;resizable=0;rotatable=0;part=1;" parent="ScCZQf0IAp3NMGlHaYm5-45" vertex="1">
          <mxGeometry y="30" width="160" height="90" as="geometry" />
        </mxCell>
        <mxCell id="ScCZQf0IAp3NMGlHaYm5-49" value="Institution" style="swimlane;childLayout=stackLayout;horizontal=1;startSize=30;horizontalStack=0;rounded=1;fontSize=14;fontStyle=0;strokeWidth=2;resizeParent=0;resizeLast=1;shadow=0;dashed=0;align=center;fillColor=#d5e8d4;strokeColor=#82b366;" parent="ScCZQf0IAp3NMGlHaYm5-1" vertex="1">
          <mxGeometry x="318.75" y="1130" width="160" height="120" as="geometry" />
        </mxCell>
        <mxCell id="ScCZQf0IAp3NMGlHaYm5-50" value="+Institution_ID&#xa;+InstitutionName" style="align=left;strokeColor=none;fillColor=none;spacingLeft=4;fontSize=12;verticalAlign=top;resizable=0;rotatable=0;part=1;" parent="ScCZQf0IAp3NMGlHaYm5-49" vertex="1">
          <mxGeometry y="30" width="160" height="90" as="geometry" />
        </mxCell>
        <mxCell id="ScCZQf0IAp3NMGlHaYm5-51" style="edgeStyle=orthogonalEdgeStyle;rounded=0;orthogonalLoop=1;jettySize=auto;html=1;exitX=-0.016;exitY=0.882;exitDx=0;exitDy=0;entryX=1.006;entryY=0.339;entryDx=0;entryDy=0;entryPerimeter=0;endArrow=ERzeroToOne;endFill=0;startArrow=ERzeroToMany;startFill=0;endSize=8;startSize=8;exitPerimeter=0;" parent="ScCZQf0IAp3NMGlHaYm5-1" source="ScCZQf0IAp3NMGlHaYm5-11" target="ScCZQf0IAp3NMGlHaYm5-50" edge="1">
          <mxGeometry relative="1" as="geometry">
            <mxPoint x="353.75" y="1222.5" as="sourcePoint" />
          </mxGeometry>
        </mxCell>
        <mxCell id="ScCZQf0IAp3NMGlHaYm5-52" value="Training" style="swimlane;childLayout=stackLayout;horizontal=1;startSize=30;horizontalStack=0;rounded=1;fontSize=14;fontStyle=0;strokeWidth=2;resizeParent=0;resizeLast=1;shadow=0;dashed=0;align=center;fillColor=#d5e8d4;strokeColor=#82b366;" parent="ScCZQf0IAp3NMGlHaYm5-1" vertex="1">
          <mxGeometry x="318.75" y="790" width="160" height="120" as="geometry" />
        </mxCell>
        <mxCell id="ScCZQf0IAp3NMGlHaYm5-53" value="+Training_ID&#xa;+Person_ID&#xa;+TrainingName" style="align=left;strokeColor=none;fillColor=none;spacingLeft=4;fontSize=12;verticalAlign=top;resizable=0;rotatable=0;part=1;" parent="ScCZQf0IAp3NMGlHaYm5-52" vertex="1">
          <mxGeometry y="30" width="160" height="90" as="geometry" />
        </mxCell>
        <mxCell id="ScCZQf0IAp3NMGlHaYm5-54" style="edgeStyle=orthogonalEdgeStyle;rounded=0;orthogonalLoop=1;jettySize=auto;html=1;exitX=1;exitY=0.25;exitDx=0;exitDy=0;entryX=-0.005;entryY=0.173;entryDx=0;entryDy=0;entryPerimeter=0;startArrow=ERzeroToMany;startFill=0;endArrow=ERmandOne;endFill=0;endSize=10;startSize=10;" parent="ScCZQf0IAp3NMGlHaYm5-1" source="ScCZQf0IAp3NMGlHaYm5-53" target="ScCZQf0IAp3NMGlHaYm5-11" edge="1">
          <mxGeometry relative="1" as="geometry">
            <Array as="points">
              <mxPoint x="568.75" y="842" />
              <mxPoint x="568.75" y="969" />
            </Array>
          </mxGeometry>
        </mxCell>
        <mxCell id="ScCZQf0IAp3NMGlHaYm5-55" style="edgeStyle=orthogonalEdgeStyle;rounded=0;orthogonalLoop=1;jettySize=auto;html=1;entryX=-0.006;entryY=0.322;entryDx=0;entryDy=0;entryPerimeter=0;startArrow=ERzeroToMany;startFill=0;endArrow=ERmandOne;endFill=0;exitX=1;exitY=0.25;exitDx=0;exitDy=0;endSize=8;startSize=8;" parent="ScCZQf0IAp3NMGlHaYm5-1" source="ScCZQf0IAp3NMGlHaYm5-57" target="ScCZQf0IAp3NMGlHaYm5-11" edge="1">
          <mxGeometry relative="1" as="geometry">
            <mxPoint x="523.75" y="1040" as="sourcePoint" />
            <Array as="points">
              <mxPoint x="510" y="995" />
              <mxPoint x="510" y="995" />
            </Array>
          </mxGeometry>
        </mxCell>
        <mxCell id="ScCZQf0IAp3NMGlHaYm5-56" value="RelatedSystemInfo" style="swimlane;childLayout=stackLayout;horizontal=1;startSize=30;horizontalStack=0;rounded=1;fontSize=14;fontStyle=0;strokeWidth=2;resizeParent=0;resizeLast=1;shadow=0;dashed=0;align=center;fillColor=#d5e8d4;strokeColor=#82b366;" parent="ScCZQf0IAp3NMGlHaYm5-1" vertex="1">
          <mxGeometry x="283.75" y="940" width="210" height="130" as="geometry" />
        </mxCell>
        <mxCell id="ScCZQf0IAp3NMGlHaYm5-57" value="+RelatedSystemInfo_ID&#xa;+Person_ID&#xa;+RelatedSystemName&#xa;+RelatedSystem_ID&#xa;+Other important info about &#xa;   that Person&#39;s related records." style="align=left;strokeColor=none;fillColor=none;spacingLeft=4;fontSize=12;verticalAlign=top;resizable=0;rotatable=0;part=1;" parent="ScCZQf0IAp3NMGlHaYm5-56" vertex="1">
          <mxGeometry y="30" width="210" height="100" as="geometry" />
        </mxCell>
        <mxCell id="ScCZQf0IAp3NMGlHaYm5-58" value="Roles" style="swimlane;childLayout=stackLayout;horizontal=1;startSize=30;horizontalStack=0;rounded=1;fontSize=14;fontStyle=0;strokeWidth=2;resizeParent=0;resizeLast=1;shadow=0;dashed=0;align=center;fillColor=#dae8fc;strokeColor=#6c8ebf;" parent="ScCZQf0IAp3NMGlHaYm5-1" vertex="1">
          <mxGeometry x="1408.75" y="1030" width="240" height="210" as="geometry" />
        </mxCell>
        <mxCell id="ScCZQf0IAp3NMGlHaYm5-59" value="+Role_D&#xa;+Name&#xa;+Description&#xa;+" style="align=left;strokeColor=none;fillColor=none;spacingLeft=4;fontSize=12;verticalAlign=top;resizable=0;rotatable=0;part=1;" parent="ScCZQf0IAp3NMGlHaYm5-58" vertex="1">
          <mxGeometry y="30" width="240" height="180" as="geometry" />
        </mxCell>
        <mxCell id="ScCZQf0IAp3NMGlHaYm5-60" style="edgeStyle=orthogonalEdgeStyle;rounded=0;orthogonalLoop=1;jettySize=auto;html=1;exitX=1;exitY=0.5;exitDx=0;exitDy=0;entryX=0;entryY=0.25;entryDx=0;entryDy=0;startArrow=ERzeroToMany;startFill=0;endArrow=ERoneToMany;endFill=0;endSize=10;startSize=10;" parent="ScCZQf0IAp3NMGlHaYm5-1" source="ScCZQf0IAp3NMGlHaYm5-14" target="ScCZQf0IAp3NMGlHaYm5-58" edge="1">
          <mxGeometry relative="1" as="geometry" />
        </mxCell>
        <mxCell id="ScCZQf0IAp3NMGlHaYm5-63" value="Actions" style="swimlane;childLayout=stackLayout;horizontal=1;startSize=30;horizontalStack=0;rounded=1;fontSize=14;fontStyle=0;strokeWidth=2;resizeParent=0;resizeLast=1;shadow=0;dashed=0;align=center;fillColor=#dae8fc;strokeColor=#6c8ebf;" parent="ScCZQf0IAp3NMGlHaYm5-1" vertex="1">
          <mxGeometry x="1418.75" y="1340" width="220" height="150" as="geometry" />
        </mxCell>
        <mxCell id="ScCZQf0IAp3NMGlHaYm5-64" value="+Action_ID&#xa;+Name&#xa;+Description&#xa;+" style="align=left;strokeColor=none;fillColor=none;spacingLeft=4;fontSize=12;verticalAlign=top;resizable=0;rotatable=0;part=1;" parent="ScCZQf0IAp3NMGlHaYm5-63" vertex="1">
          <mxGeometry y="30" width="220" height="120" as="geometry" />
        </mxCell>
        <mxCell id="ScCZQf0IAp3NMGlHaYm5-68" style="edgeStyle=orthogonalEdgeStyle;rounded=0;orthogonalLoop=1;jettySize=auto;html=1;exitX=0.5;exitY=1;exitDx=0;exitDy=0;entryX=0.5;entryY=0;entryDx=0;entryDy=0;startArrow=ERzeroToMany;startFill=0;endArrow=ERzeroToMany;endFill=0;endSize=10;startSize=10;" parent="ScCZQf0IAp3NMGlHaYm5-1" source="ScCZQf0IAp3NMGlHaYm5-59" target="ScCZQf0IAp3NMGlHaYm5-63" edge="1">
          <mxGeometry relative="1" as="geometry" />
        </mxCell>
        <mxCell id="ScCZQf0IAp3NMGlHaYm5-69" value="&lt;h1&gt;DataLens V2 Entity-Relationship Diagram DRAFT&lt;/h1&gt;&lt;p&gt;Authors: Nick Timkovich, Brian Harmon, Matt Wyatt, Abakash Samal, Brandon Sharp, Adarsh Khare, Heena Chitkara&lt;br&gt;Last Updated: September 28, 2022 (Team ERD Review Meeting)&lt;/p&gt;" style="text;html=1;strokeColor=none;fillColor=none;spacing=5;spacingTop=-20;whiteSpace=wrap;overflow=hidden;rounded=0;fontSize=16;" parent="ScCZQf0IAp3NMGlHaYm5-1" vertex="1">
          <mxGeometry x="73.75" y="30" width="876.25" height="120" as="geometry" />
        </mxCell>
        <mxCell id="ScCZQf0IAp3NMGlHaYm5-70" value="&lt;ul&gt;&lt;li&gt;Many-to-Many relationships have an implied JOIN table between the entities.&lt;/li&gt;&lt;li&gt;Color Coding represents general entity collections for functional purposes.&lt;/li&gt;&lt;li&gt;Lookup and other tables are omitted for brevity&lt;/li&gt;&lt;li&gt;THIS IS A DRAFT and SUBJECT to change.&lt;/li&gt;&lt;/ul&gt;" style="text;html=1;strokeColor=none;fillColor=none;align=left;verticalAlign=top;whiteSpace=wrap;rounded=0;fontSize=16;" parent="ScCZQf0IAp3NMGlHaYm5-1" vertex="1">
          <mxGeometry x="1020" y="40" width="530" height="150" as="geometry" />
        </mxCell>
        <mxCell id="ScCZQf0IAp3NMGlHaYm5-71" style="edgeStyle=orthogonalEdgeStyle;rounded=0;orthogonalLoop=1;jettySize=auto;html=1;exitX=0.5;exitY=0;exitDx=0;exitDy=0;startArrow=ERzeroToOne;startFill=0;entryX=0.385;entryY=1.005;entryDx=0;entryDy=0;entryPerimeter=0;endArrow=ERoneToMany;endFill=0;endSize=10;startSize=10;" parent="ScCZQf0IAp3NMGlHaYm5-1" source="ScCZQf0IAp3NMGlHaYm5-72" target="ScCZQf0IAp3NMGlHaYm5-3" edge="1">
          <mxGeometry relative="1" as="geometry" />
        </mxCell>
        <mxCell id="ScCZQf0IAp3NMGlHaYm5-72" value="Attachment" style="swimlane;childLayout=stackLayout;horizontal=1;startSize=30;horizontalStack=0;rounded=1;fontSize=14;fontStyle=0;strokeWidth=2;resizeParent=0;resizeLast=1;shadow=0;dashed=0;align=center;fillColor=#ffe6cc;strokeColor=#d79b00;" parent="ScCZQf0IAp3NMGlHaYm5-1" vertex="1">
          <mxGeometry x="90" y="860" width="160" height="160" as="geometry" />
        </mxCell>
        <mxCell id="ScCZQf0IAp3NMGlHaYm5-73" value="+Attachment_ID&#xa;+DataRequest_ID&#xa;+DisplayNameforUI&#xa;+FileName&#xa;+ContentType&#xa;+" style="align=left;strokeColor=none;fillColor=none;spacingLeft=4;fontSize=12;verticalAlign=top;resizable=0;rotatable=0;part=1;" parent="ScCZQf0IAp3NMGlHaYm5-72" vertex="1">
          <mxGeometry y="30" width="160" height="130" as="geometry" />
        </mxCell>
        <mxCell id="hKgSFhePXm8vNnnpxbVq-0" value="ProjectType indicates a &quot;My Stuff&quot; Project or other types (&quot;Research&quot;, &quot;Collaborative&quot;, etc].&amp;nbsp; &quot;My Stuff&quot; projects are used to manage a Person&#39;s Assets." style="text;html=1;strokeColor=none;fillColor=none;align=left;verticalAlign=top;whiteSpace=wrap;rounded=0;" parent="ScCZQf0IAp3NMGlHaYm5-1" vertex="1">
          <mxGeometry x="880" y="1320" width="190" height="140" as="geometry" />
        </mxCell>
        <mxCell id="hKgSFhePXm8vNnnpxbVq-1" value="The Blue relationship lines indicate that the M-to-N Association table will contain information about the Person&#39;s role and/or level of access to DRs, Protocols, Cohorts, or Projects.&lt;br&gt;&lt;br&gt;This level of permission control is record-level permissions, as compared to module-level permissions (see &lt;font color=&quot;#a9c4eb&quot;&gt;blue&lt;/font&gt; entities in this diagram).&lt;br&gt;&lt;br&gt;Examples:&lt;br&gt;- Homer can access Protocol #IRB-00090 because he&#39;s assigned to be the &quot;PI&quot; for that Protocol.&lt;br&gt;- Marge can edit DR#456-J7 because she&#39;s assigned to be the &quot;Research Coordinator&quot; for that DR." style="text;html=1;strokeColor=none;fillColor=none;align=left;verticalAlign=top;whiteSpace=wrap;rounded=0;fontColor=#0000FF;fontStyle=1;horizontal=1;" parent="ScCZQf0IAp3NMGlHaYm5-1" vertex="1">
          <mxGeometry x="1103.75" y="240" width="176.25" height="370" as="geometry" />
        </mxCell>
        <mxCell id="hKgSFhePXm8vNnnpxbVq-2" value="Roles and Actions will control module-level permissions (as compared to record-level permissions) for a role in the application.&lt;br&gt;&lt;br&gt;Examples:&amp;nbsp;&lt;br&gt;- Requester can Access Data Requests module.&lt;br&gt;- Requester can create a new Data Request.&lt;br&gt;- Admin can manage User Accounts." style="text;html=1;strokeColor=none;fillColor=none;align=left;verticalAlign=top;whiteSpace=wrap;rounded=0;fontColor=#000000;" parent="ScCZQf0IAp3NMGlHaYm5-1" vertex="1">
          <mxGeometry x="1230" y="1150" width="160" height="235" as="geometry" />
        </mxCell>
        <mxCell id="G7ppJfeImuzxRYfkMiGm-0" value="&lt;div style=&quot;font-family: Menlo, Monaco, &amp;quot;Courier New&amp;quot;, monospace; line-height: 18px;&quot;&gt;&lt;div style=&quot;&quot;&gt;Person to Data Request Relationship Types&lt;/div&gt;&lt;br&gt;&lt;div style=&quot;&quot;&gt;- Person is OWNER of DataRequest&lt;/div&gt;&lt;div style=&quot;&quot;&gt;- Person is CREATOR of DataRequest&lt;/div&gt;&lt;div style=&quot;&quot;&gt;- Person is PRINCIPAL REQUESTER of DataRequest&lt;/div&gt;&lt;div style=&quot;&quot;&gt;- Person is REQUEST MANAGER of DataRequest&lt;/div&gt;&lt;div style=&quot;&quot;&gt;- Person is RESEARCH ASSISTANT of DataRequest&lt;/div&gt;&lt;div style=&quot;&quot;&gt;- Person is DATA ANALYST of DataRequest&lt;/div&gt;&lt;div style=&quot;&quot;&gt;- Person is BIOSTATISTICIAN of DataRequest&lt;/div&gt;&lt;br&gt;&lt;br&gt;&lt;br&gt;&lt;div style=&quot;&quot;&gt;Person to Project Relationship Types&lt;/div&gt;&lt;div style=&quot;&quot;&gt;- Person is OWNER of Project&lt;/div&gt;&lt;div style=&quot;&quot;&gt;- Person is CREATOR of Project&lt;/div&gt;&lt;div style=&quot;&quot;&gt;- Person is PRINCIPAL INVESTIGATOR of Project&lt;/div&gt;&lt;div style=&quot;&quot;&gt;- Person is CO-INVESTIGATOR of Project&lt;/div&gt;&lt;div style=&quot;&quot;&gt;- Person is RESEARCH ASSISTANT of Project&lt;/div&gt;&lt;div style=&quot;&quot;&gt;- Person is PROJECT MANAGER of Project&lt;/div&gt;&lt;div style=&quot;&quot;&gt;- Person is DATA ANALYST of Project&lt;/div&gt;&lt;div style=&quot;&quot;&gt;- Person is BIOSTATISTICIAN of Project&lt;/div&gt;&lt;/div&gt;" style="text;html=1;strokeColor=none;fillColor=none;align=left;verticalAlign=top;whiteSpace=wrap;rounded=0;" parent="ScCZQf0IAp3NMGlHaYm5-1" vertex="1">
          <mxGeometry x="1080" y="1570" width="290" height="250" as="geometry" />
        </mxCell>
      </root>
    </mxGraphModel>
  </diagram>
  <diagram name="Unified Person" id="qztb8kpNZp3xLkgxMMOT">
    <mxGraphModel dx="1654" dy="997" grid="1" gridSize="10" guides="1" tooltips="1" connect="1" arrows="1" fold="1" page="1" pageScale="1" pageWidth="850" pageHeight="1100" math="0" shadow="0">
      <root>
        <mxCell id="9jwT6VfsY7PpqhXGR-KM-0" />
        <mxCell id="9jwT6VfsY7PpqhXGR-KM-1" parent="9jwT6VfsY7PpqhXGR-KM-0" />
        <mxCell id="9jwT6VfsY7PpqhXGR-KM-2" value="DataRequest" style="swimlane;childLayout=stackLayout;horizontal=1;startSize=30;horizontalStack=0;rounded=1;fontSize=14;fontStyle=0;strokeWidth=2;resizeParent=0;resizeLast=1;shadow=0;dashed=0;align=center;fillColor=#ffe6cc;strokeColor=#d79b00;" parent="9jwT6VfsY7PpqhXGR-KM-1" vertex="1">
          <mxGeometry x="60" y="290" width="275" height="250" as="geometry" />
        </mxCell>
        <mxCell id="9jwT6VfsY7PpqhXGR-KM-3" value="+DataRequest_ID&#xa;+Name&#xa;+Status&#xa;+Protocol_ID&#xa;+Project_ID&#xa;+GitLabIssue_ID&#xa;+Visibility&#xa;+ MUCH MUCH MORE!!" style="align=left;strokeColor=none;fillColor=none;spacingLeft=4;fontSize=12;verticalAlign=top;resizable=0;rotatable=0;part=1;" parent="9jwT6VfsY7PpqhXGR-KM-2" vertex="1">
          <mxGeometry y="30" width="275" height="220" as="geometry" />
        </mxCell>
        <mxCell id="9jwT6VfsY7PpqhXGR-KM-4" value="Protocol" style="swimlane;childLayout=stackLayout;horizontal=1;startSize=30;horizontalStack=0;rounded=1;fontSize=14;fontStyle=0;strokeWidth=2;resizeParent=0;resizeLast=1;shadow=0;dashed=0;align=center;fillColor=#ffe6cc;strokeColor=#d79b00;" parent="9jwT6VfsY7PpqhXGR-KM-1" vertex="1">
          <mxGeometry x="638.75" y="160" width="230" height="190" as="geometry" />
        </mxCell>
        <mxCell id="9jwT6VfsY7PpqhXGR-KM-5" value="+Protocol_ID&#xa;+IRAP_ID&#xa;+Name&#xa;+Visibility" style="align=left;strokeColor=none;fillColor=none;spacingLeft=4;fontSize=12;verticalAlign=top;resizable=0;rotatable=0;part=1;" parent="9jwT6VfsY7PpqhXGR-KM-4" vertex="1">
          <mxGeometry y="30" width="230" height="160" as="geometry" />
        </mxCell>
        <mxCell id="9jwT6VfsY7PpqhXGR-KM-6" value="Cohort" style="swimlane;childLayout=stackLayout;horizontal=1;startSize=30;horizontalStack=0;rounded=1;fontSize=14;fontStyle=0;strokeWidth=2;resizeParent=0;resizeLast=1;shadow=0;dashed=0;align=center;fillColor=#ffe6cc;strokeColor=#d79b00;" parent="9jwT6VfsY7PpqhXGR-KM-1" vertex="1">
          <mxGeometry x="638.75" y="400" width="230" height="200" as="geometry" />
        </mxCell>
        <mxCell id="9jwT6VfsY7PpqhXGR-KM-7" value="+Cohort_ID&#xa;+Source&#xa;+Name&#xa;+Visibility" style="align=left;strokeColor=none;fillColor=none;spacingLeft=4;fontSize=12;verticalAlign=top;resizable=0;rotatable=0;part=1;" parent="9jwT6VfsY7PpqhXGR-KM-6" vertex="1">
          <mxGeometry y="30" width="230" height="170" as="geometry" />
        </mxCell>
        <mxCell id="9jwT6VfsY7PpqhXGR-KM-8" style="edgeStyle=orthogonalEdgeStyle;rounded=0;orthogonalLoop=1;jettySize=auto;html=1;exitX=0.5;exitY=0;exitDx=0;exitDy=0;entryX=1;entryY=0.5;entryDx=0;entryDy=0;startArrow=ERoneToMany;startFill=0;endArrow=ERmandOne;endFill=0;endSize=10;startSize=10;strokeWidth=2;strokeColor=#0000FF;" parent="9jwT6VfsY7PpqhXGR-KM-1" source="RqUztPoUdPdi1Sx-PnGn-18" target="9jwT6VfsY7PpqhXGR-KM-3" edge="1">
          <mxGeometry relative="1" as="geometry">
            <mxPoint x="718.75" y="820" as="targetPoint" />
            <Array as="points">
              <mxPoint x="510" y="430" />
            </Array>
          </mxGeometry>
        </mxCell>
        <mxCell id="9jwT6VfsY7PpqhXGR-KM-9" style="edgeStyle=orthogonalEdgeStyle;rounded=0;orthogonalLoop=1;jettySize=auto;html=1;exitX=0;exitY=0.25;exitDx=0;exitDy=0;entryX=0.566;entryY=1.009;entryDx=0;entryDy=0;startArrow=ERzeroToMany;startFill=0;endArrow=ERmandOne;endFill=0;entryPerimeter=0;endSize=10;startSize=10;strokeColor=#0000FF;strokeWidth=2;" parent="9jwT6VfsY7PpqhXGR-KM-1" source="RqUztPoUdPdi1Sx-PnGn-13" target="9jwT6VfsY7PpqhXGR-KM-7" edge="1">
          <mxGeometry relative="1" as="geometry">
            <mxPoint x="1068.75" y="580" as="targetPoint" />
            <Array as="points">
              <mxPoint x="769" y="752" />
            </Array>
          </mxGeometry>
        </mxCell>
        <mxCell id="9jwT6VfsY7PpqhXGR-KM-10" value="Person" style="swimlane;childLayout=stackLayout;horizontal=1;startSize=30;horizontalStack=0;rounded=1;fontSize=14;fontStyle=0;strokeWidth=2;resizeParent=0;resizeLast=1;shadow=0;dashed=0;align=center;fillColor=#d5e8d4;strokeColor=#82b366;" parent="9jwT6VfsY7PpqhXGR-KM-1" vertex="1">
          <mxGeometry x="598.75" y="910" width="240" height="330" as="geometry" />
        </mxCell>
        <mxCell id="9jwT6VfsY7PpqhXGR-KM-11" value="+Person_ID (IDENTITY, arbitrary)&#xa;+Name&#xa;+Email&#xa;+Institution_ID&#xa;+AstrologicalSign&#xa;+FavoriteColor&#xa;+blazerID&#xa;+UABMC_ID&#xa;+other stuff all about system access &#xa;     OR Person-as-entity" style="align=left;strokeColor=none;fillColor=none;spacingLeft=4;fontSize=12;verticalAlign=top;resizable=0;rotatable=0;part=1;" parent="9jwT6VfsY7PpqhXGR-KM-10" vertex="1">
          <mxGeometry y="30" width="240" height="300" as="geometry" />
        </mxCell>
        <mxCell id="9jwT6VfsY7PpqhXGR-KM-12" style="edgeStyle=orthogonalEdgeStyle;rounded=0;orthogonalLoop=1;jettySize=auto;html=1;exitX=1.005;exitY=0.333;exitDx=0;exitDy=0;startArrow=ERmandOne;startFill=0;endArrow=ERzeroToMany;endFill=0;entryX=0.5;entryY=1;entryDx=0;entryDy=0;endSize=10;startSize=10;exitPerimeter=0;" parent="9jwT6VfsY7PpqhXGR-KM-1" source="9jwT6VfsY7PpqhXGR-KM-11" target="9jwT6VfsY7PpqhXGR-KM-27" edge="1">
          <mxGeometry relative="1" as="geometry">
            <mxPoint x="848.75" y="1110" as="targetPoint" />
            <mxPoint x="1193.75" y="930" as="sourcePoint" />
          </mxGeometry>
        </mxCell>
        <mxCell id="9jwT6VfsY7PpqhXGR-KM-15" style="edgeStyle=orthogonalEdgeStyle;rounded=0;orthogonalLoop=1;jettySize=auto;html=1;exitX=1;exitY=0.75;exitDx=0;exitDy=0;entryX=1;entryY=0;entryDx=0;entryDy=0;startArrow=ERzeroToMany;startFill=0;endArrow=ERzeroToMany;endFill=0;endSize=10;startSize=10;strokeColor=#00CC00;strokeWidth=2;" parent="9jwT6VfsY7PpqhXGR-KM-1" source="9jwT6VfsY7PpqhXGR-KM-17" target="9jwT6VfsY7PpqhXGR-KM-5" edge="1">
          <mxGeometry relative="1" as="geometry">
            <Array as="points">
              <mxPoint x="1110" y="1635" />
              <mxPoint x="1110" y="190" />
            </Array>
            <mxPoint x="1308.75" y="310" as="targetPoint" />
          </mxGeometry>
        </mxCell>
        <mxCell id="9jwT6VfsY7PpqhXGR-KM-16" value="Project" style="swimlane;childLayout=stackLayout;horizontal=1;startSize=30;horizontalStack=0;rounded=1;fontSize=14;fontStyle=0;strokeWidth=2;resizeParent=0;resizeLast=1;shadow=0;dashed=0;align=center;fillColor=#f5f5f5;strokeColor=#666666;fontColor=#333333;" parent="9jwT6VfsY7PpqhXGR-KM-1" vertex="1">
          <mxGeometry x="598.75" y="1470" width="260" height="210" as="geometry" />
        </mxCell>
        <mxCell id="9jwT6VfsY7PpqhXGR-KM-17" value="+Project_ID&#xa;+Name&#xa;+Description&#xa;+ProjectType" style="align=left;strokeColor=none;fillColor=none;spacingLeft=4;fontSize=12;verticalAlign=top;resizable=0;rotatable=0;part=1;" parent="9jwT6VfsY7PpqhXGR-KM-16" vertex="1">
          <mxGeometry y="30" width="260" height="180" as="geometry" />
        </mxCell>
        <mxCell id="9jwT6VfsY7PpqhXGR-KM-18" style="edgeStyle=orthogonalEdgeStyle;rounded=0;orthogonalLoop=1;jettySize=auto;html=1;exitX=0;exitY=0;exitDx=0;exitDy=0;entryX=0.75;entryY=0;entryDx=0;entryDy=0;startArrow=ERzeroToOne;startFill=0;endArrow=ERzeroToMany;endFill=0;strokeWidth=2;endSize=10;startSize=10;strokeColor=#00CC00;" parent="9jwT6VfsY7PpqhXGR-KM-1" source="9jwT6VfsY7PpqhXGR-KM-5" target="9jwT6VfsY7PpqhXGR-KM-2" edge="1">
          <mxGeometry relative="1" as="geometry">
            <Array as="points">
              <mxPoint x="266" y="190" />
            </Array>
          </mxGeometry>
        </mxCell>
        <mxCell id="9jwT6VfsY7PpqhXGR-KM-19" style="edgeStyle=orthogonalEdgeStyle;rounded=0;orthogonalLoop=1;jettySize=auto;html=1;startArrow=ERzeroToMany;startFill=0;endArrow=ERzeroToOne;endFill=0;entryX=0;entryY=0.75;entryDx=0;entryDy=0;exitX=0.25;exitY=1;exitDx=0;exitDy=0;endSize=10;startSize=10;strokeWidth=2;strokeColor=#00CC00;" parent="9jwT6VfsY7PpqhXGR-KM-1" source="9jwT6VfsY7PpqhXGR-KM-3" target="9jwT6VfsY7PpqhXGR-KM-17" edge="1">
          <mxGeometry relative="1" as="geometry">
            <Array as="points">
              <mxPoint x="129" y="830" />
              <mxPoint x="64" y="830" />
              <mxPoint x="64" y="1635" />
            </Array>
            <mxPoint x="278.75" y="760" as="sourcePoint" />
            <mxPoint x="698.75" y="1550" as="targetPoint" />
          </mxGeometry>
        </mxCell>
        <mxCell id="9jwT6VfsY7PpqhXGR-KM-21" style="edgeStyle=orthogonalEdgeStyle;rounded=0;orthogonalLoop=1;jettySize=auto;html=1;exitX=0.5;exitY=0;exitDx=0;exitDy=0;startArrow=ERzeroToMany;startFill=0;endArrow=ERoneToMany;endFill=0;entryX=0.5;entryY=1;entryDx=0;entryDy=0;endSize=10;startSize=10;strokeColor=#00CC00;strokeWidth=2;" parent="9jwT6VfsY7PpqhXGR-KM-1" source="9jwT6VfsY7PpqhXGR-KM-22" target="9jwT6VfsY7PpqhXGR-KM-17" edge="1">
          <mxGeometry relative="1" as="geometry">
            <mxPoint x="898.75" y="2160" as="targetPoint" />
          </mxGeometry>
        </mxCell>
        <mxCell id="9jwT6VfsY7PpqhXGR-KM-22" value="Asset" style="swimlane;childLayout=stackLayout;horizontal=1;startSize=30;horizontalStack=0;rounded=1;fontSize=14;fontStyle=0;strokeWidth=2;resizeParent=0;resizeLast=1;shadow=0;dashed=0;align=center;fillColor=#f5f5f5;strokeColor=#666666;fontColor=#333333;" parent="9jwT6VfsY7PpqhXGR-KM-1" vertex="1">
          <mxGeometry x="598.75" y="1770" width="260" height="210" as="geometry" />
        </mxCell>
        <mxCell id="9jwT6VfsY7PpqhXGR-KM-23" value="+Asset_ID&#xa;+Type&#xa;+ContentType&#xa;+Name&#xa;+URL&#xa;+other standard Asset columns" style="align=left;strokeColor=none;fillColor=none;spacingLeft=4;fontSize=12;verticalAlign=top;resizable=0;rotatable=0;part=1;" parent="9jwT6VfsY7PpqhXGR-KM-22" vertex="1">
          <mxGeometry y="30" width="260" height="180" as="geometry" />
        </mxCell>
        <mxCell id="9jwT6VfsY7PpqhXGR-KM-24" style="edgeStyle=orthogonalEdgeStyle;rounded=0;orthogonalLoop=1;jettySize=auto;html=1;exitX=1;exitY=0.25;exitDx=0;exitDy=0;entryX=0.75;entryY=1;entryDx=0;entryDy=0;startArrow=ERmandOne;startFill=0;endArrow=ERzeroToMany;endFill=0;endSize=10;startSize=10;strokeColor=#0000FF;strokeWidth=2;" parent="9jwT6VfsY7PpqhXGR-KM-1" source="9jwT6VfsY7PpqhXGR-KM-11" target="RqUztPoUdPdi1Sx-PnGn-1" edge="1">
          <mxGeometry relative="1" as="geometry">
            <Array as="points">
              <mxPoint x="1040" y="1015" />
            </Array>
            <mxPoint x="1158.75" y="62.5" as="targetPoint" />
          </mxGeometry>
        </mxCell>
        <mxCell id="9jwT6VfsY7PpqhXGR-KM-25" style="edgeStyle=orthogonalEdgeStyle;rounded=0;orthogonalLoop=1;jettySize=auto;html=1;exitX=0;exitY=0.5;exitDx=0;exitDy=0;entryX=1;entryY=0.25;entryDx=0;entryDy=0;startArrow=ERzeroToMany;startFill=0;endArrow=ERzeroToMany;endFill=0;endSize=10;startSize=10;strokeColor=#00CC00;strokeWidth=2;" parent="9jwT6VfsY7PpqhXGR-KM-1" source="9jwT6VfsY7PpqhXGR-KM-7" target="9jwT6VfsY7PpqhXGR-KM-3" edge="1">
          <mxGeometry relative="1" as="geometry">
            <Array as="points">
              <mxPoint x="574" y="515" />
              <mxPoint x="574" y="375" />
            </Array>
            <mxPoint x="378.75" y="516.02" as="sourcePoint" />
          </mxGeometry>
        </mxCell>
        <mxCell id="9jwT6VfsY7PpqhXGR-KM-26" style="edgeStyle=orthogonalEdgeStyle;rounded=0;orthogonalLoop=1;jettySize=auto;html=1;entryX=0.25;entryY=1;entryDx=0;entryDy=0;startArrow=ERzeroToMany;startFill=0;endArrow=ERmandOne;endFill=0;exitX=1;exitY=0;exitDx=0;exitDy=0;endSize=10;startSize=10;strokeColor=#0000FF;strokeWidth=2;" parent="9jwT6VfsY7PpqhXGR-KM-1" source="RqUztPoUdPdi1Sx-PnGn-9" target="9jwT6VfsY7PpqhXGR-KM-11" edge="1">
          <mxGeometry relative="1" as="geometry">
            <mxPoint x="778.75" y="1560" as="sourcePoint" />
            <Array as="points">
              <mxPoint x="659" y="1360" />
            </Array>
          </mxGeometry>
        </mxCell>
        <mxCell id="9jwT6VfsY7PpqhXGR-KM-27" value="&lt;font style=&quot;font-size: 16px;&quot;&gt;&lt;b&gt;All Tables/Audit Logs&lt;/b&gt;&lt;/font&gt;&lt;br&gt;(CreatedBy, UpdatedBy, Logins,&amp;nbsp;&lt;br&gt;Downloads, Admin Activity, etc)" style="whiteSpace=wrap;html=1;align=center;" parent="9jwT6VfsY7PpqhXGR-KM-1" vertex="1">
          <mxGeometry x="1160" y="895" width="180" height="90" as="geometry" />
        </mxCell>
        <mxCell id="9jwT6VfsY7PpqhXGR-KM-28" style="edgeStyle=orthogonalEdgeStyle;rounded=0;orthogonalLoop=1;jettySize=auto;html=1;entryX=1;entryY=0.75;entryDx=0;entryDy=0;startArrow=ERzeroToMany;startFill=0;endArrow=ERzeroToMany;endFill=0;exitX=0.615;exitY=0.005;exitDx=0;exitDy=0;exitPerimeter=0;endSize=10;startSize=10;strokeColor=#00CC00;strokeWidth=2;" parent="9jwT6VfsY7PpqhXGR-KM-1" source="9jwT6VfsY7PpqhXGR-KM-16" target="9jwT6VfsY7PpqhXGR-KM-7" edge="1">
          <mxGeometry relative="1" as="geometry">
            <Array as="points">
              <mxPoint x="759" y="1300" />
              <mxPoint x="1080" y="1300" />
              <mxPoint x="1080" y="558" />
            </Array>
            <mxPoint x="888.75" y="1560" as="sourcePoint" />
            <mxPoint x="1028.75" y="752.5" as="targetPoint" />
          </mxGeometry>
        </mxCell>
        <mxCell id="9jwT6VfsY7PpqhXGR-KM-29" value="ClinicalDataSet" style="swimlane;childLayout=stackLayout;horizontal=1;startSize=30;horizontalStack=0;rounded=1;fontSize=14;fontStyle=0;strokeWidth=2;resizeParent=0;resizeLast=1;shadow=0;dashed=0;align=center;fillColor=#ffe6cc;strokeColor=#d79b00;" parent="9jwT6VfsY7PpqhXGR-KM-1" vertex="1">
          <mxGeometry x="188.75" y="610" width="200" height="160" as="geometry" />
        </mxCell>
        <mxCell id="9jwT6VfsY7PpqhXGR-KM-30" value="+ClinicalDataSet_ID&#xa;+DataRequest_ID&#xa;+FileName&#xa;+ContentType&#xa;+Description&#xa;+DataSetType (PHI, LDS, etc)&#xa;+IsFinalDeliverable&#xa;+HasBeenReviewed" style="align=left;strokeColor=none;fillColor=none;spacingLeft=4;fontSize=12;verticalAlign=top;resizable=0;rotatable=0;part=1;" parent="9jwT6VfsY7PpqhXGR-KM-29" vertex="1">
          <mxGeometry y="30" width="200" height="130" as="geometry" />
        </mxCell>
        <mxCell id="9jwT6VfsY7PpqhXGR-KM-31" style="edgeStyle=orthogonalEdgeStyle;rounded=0;orthogonalLoop=1;jettySize=auto;html=1;entryX=0.5;entryY=0;entryDx=0;entryDy=0;startArrow=ERzeroToOne;startFill=0;endArrow=ERzeroToMany;endFill=0;endSize=10;startSize=10;exitX=0.576;exitY=0.995;exitDx=0;exitDy=0;exitPerimeter=0;" parent="9jwT6VfsY7PpqhXGR-KM-1" source="9jwT6VfsY7PpqhXGR-KM-3" target="9jwT6VfsY7PpqhXGR-KM-29" edge="1">
          <mxGeometry relative="1" as="geometry" />
        </mxCell>
        <mxCell id="9jwT6VfsY7PpqhXGR-KM-32" value="EventLog" style="swimlane;childLayout=stackLayout;horizontal=1;startSize=30;horizontalStack=0;rounded=1;fontSize=14;fontStyle=0;strokeWidth=2;resizeParent=0;resizeLast=1;shadow=0;dashed=0;align=center;fillColor=#fff2cc;strokeColor=#d6b656;" parent="9jwT6VfsY7PpqhXGR-KM-1" vertex="1">
          <mxGeometry x="73.75" y="1700" width="160" height="120" as="geometry" />
        </mxCell>
        <mxCell id="9jwT6VfsY7PpqhXGR-KM-33" value="+EventID&#xa;+SourceModule_ID&#xa;+Message&#xa;+StackTrace&#xa;+EventDate" style="align=left;strokeColor=none;fillColor=none;spacingLeft=4;fontSize=12;verticalAlign=top;resizable=0;rotatable=0;part=1;" parent="9jwT6VfsY7PpqhXGR-KM-32" vertex="1">
          <mxGeometry y="30" width="160" height="90" as="geometry" />
        </mxCell>
        <mxCell id="9jwT6VfsY7PpqhXGR-KM-34" value="AppSettings" style="swimlane;childLayout=stackLayout;horizontal=1;startSize=30;horizontalStack=0;rounded=1;fontSize=14;fontStyle=0;strokeWidth=2;resizeParent=0;resizeLast=1;shadow=0;dashed=0;align=center;fillColor=#fff2cc;strokeColor=#d6b656;" parent="9jwT6VfsY7PpqhXGR-KM-1" vertex="1">
          <mxGeometry x="73.75" y="1870" width="160" height="120" as="geometry" />
        </mxCell>
        <mxCell id="9jwT6VfsY7PpqhXGR-KM-35" value="+AppSettingID&#xa;+Name&#xa;+Value" style="align=left;strokeColor=none;fillColor=none;spacingLeft=4;fontSize=12;verticalAlign=top;resizable=0;rotatable=0;part=1;" parent="9jwT6VfsY7PpqhXGR-KM-34" vertex="1">
          <mxGeometry y="30" width="160" height="90" as="geometry" />
        </mxCell>
        <mxCell id="9jwT6VfsY7PpqhXGR-KM-36" value="Institution" style="swimlane;childLayout=stackLayout;horizontal=1;startSize=30;horizontalStack=0;rounded=1;fontSize=14;fontStyle=0;strokeWidth=2;resizeParent=0;resizeLast=1;shadow=0;dashed=0;align=center;fillColor=#d5e8d4;strokeColor=#82b366;" parent="9jwT6VfsY7PpqhXGR-KM-1" vertex="1">
          <mxGeometry x="140" y="1210" width="160" height="120" as="geometry" />
        </mxCell>
        <mxCell id="9jwT6VfsY7PpqhXGR-KM-37" value="+Institution_ID&#xa;+InstitutionName" style="align=left;strokeColor=none;fillColor=none;spacingLeft=4;fontSize=12;verticalAlign=top;resizable=0;rotatable=0;part=1;" parent="9jwT6VfsY7PpqhXGR-KM-36" vertex="1">
          <mxGeometry y="30" width="160" height="90" as="geometry" />
        </mxCell>
        <mxCell id="9jwT6VfsY7PpqhXGR-KM-38" style="edgeStyle=orthogonalEdgeStyle;rounded=0;orthogonalLoop=1;jettySize=auto;html=1;exitX=-0.016;exitY=0.882;exitDx=0;exitDy=0;entryX=1.006;entryY=0.339;entryDx=0;entryDy=0;entryPerimeter=0;endArrow=ERzeroToOne;endFill=0;startArrow=ERzeroToMany;startFill=0;endSize=8;startSize=8;exitPerimeter=0;" parent="9jwT6VfsY7PpqhXGR-KM-1" source="9jwT6VfsY7PpqhXGR-KM-11" target="9jwT6VfsY7PpqhXGR-KM-37" edge="1">
          <mxGeometry relative="1" as="geometry">
            <mxPoint x="353.75" y="1222.5" as="sourcePoint" />
          </mxGeometry>
        </mxCell>
        <mxCell id="9jwT6VfsY7PpqhXGR-KM-39" value="Training" style="swimlane;childLayout=stackLayout;horizontal=1;startSize=30;horizontalStack=0;rounded=1;fontSize=14;fontStyle=0;strokeWidth=2;resizeParent=0;resizeLast=1;shadow=0;dashed=0;align=center;fillColor=#d5e8d4;strokeColor=#82b366;" parent="9jwT6VfsY7PpqhXGR-KM-1" vertex="1">
          <mxGeometry x="280" y="865" width="160" height="120" as="geometry" />
        </mxCell>
        <mxCell id="9jwT6VfsY7PpqhXGR-KM-40" value="+Training_ID&#xa;+Person_ID&#xa;+TrainingName" style="align=left;strokeColor=none;fillColor=none;spacingLeft=4;fontSize=12;verticalAlign=top;resizable=0;rotatable=0;part=1;" parent="9jwT6VfsY7PpqhXGR-KM-39" vertex="1">
          <mxGeometry y="30" width="160" height="90" as="geometry" />
        </mxCell>
        <mxCell id="9jwT6VfsY7PpqhXGR-KM-41" style="edgeStyle=orthogonalEdgeStyle;rounded=0;orthogonalLoop=1;jettySize=auto;html=1;exitX=1;exitY=0.25;exitDx=0;exitDy=0;entryX=-0.005;entryY=0.173;entryDx=0;entryDy=0;entryPerimeter=0;startArrow=ERzeroToMany;startFill=0;endArrow=ERmandOne;endFill=0;endSize=10;startSize=10;" parent="9jwT6VfsY7PpqhXGR-KM-1" source="9jwT6VfsY7PpqhXGR-KM-40" target="9jwT6VfsY7PpqhXGR-KM-11" edge="1">
          <mxGeometry relative="1" as="geometry">
            <Array as="points">
              <mxPoint x="520" y="918" />
              <mxPoint x="520" y="992" />
            </Array>
          </mxGeometry>
        </mxCell>
        <mxCell id="9jwT6VfsY7PpqhXGR-KM-42" style="edgeStyle=orthogonalEdgeStyle;rounded=0;orthogonalLoop=1;jettySize=auto;html=1;entryX=-0.006;entryY=0.322;entryDx=0;entryDy=0;entryPerimeter=0;startArrow=ERzeroToMany;startFill=0;endArrow=ERmandOne;endFill=0;exitX=1;exitY=0.25;exitDx=0;exitDy=0;endSize=8;startSize=8;" parent="9jwT6VfsY7PpqhXGR-KM-1" source="9jwT6VfsY7PpqhXGR-KM-44" target="9jwT6VfsY7PpqhXGR-KM-11" edge="1">
          <mxGeometry relative="1" as="geometry">
            <mxPoint x="523.75" y="1040" as="sourcePoint" />
            <Array as="points">
              <mxPoint x="540" y="1085" />
              <mxPoint x="540" y="1037" />
            </Array>
          </mxGeometry>
        </mxCell>
        <mxCell id="9jwT6VfsY7PpqhXGR-KM-43" value="RelatedSystemInfo" style="swimlane;childLayout=stackLayout;horizontal=1;startSize=30;horizontalStack=0;rounded=1;fontSize=14;fontStyle=0;strokeWidth=2;resizeParent=0;resizeLast=1;shadow=0;dashed=0;align=center;fillColor=#d5e8d4;strokeColor=#82b366;" parent="9jwT6VfsY7PpqhXGR-KM-1" vertex="1">
          <mxGeometry x="280" y="1030" width="210" height="130" as="geometry" />
        </mxCell>
        <mxCell id="9jwT6VfsY7PpqhXGR-KM-44" value="+RelatedSystemInfo_ID&#xa;+Person_ID&#xa;+RelatedSystemName&#xa;+RelatedSystem_ID&#xa;+Other important info about &#xa;   that Person&#39;s related records." style="align=left;strokeColor=none;fillColor=none;spacingLeft=4;fontSize=12;verticalAlign=top;resizable=0;rotatable=0;part=1;" parent="9jwT6VfsY7PpqhXGR-KM-43" vertex="1">
          <mxGeometry y="30" width="210" height="100" as="geometry" />
        </mxCell>
        <mxCell id="9jwT6VfsY7PpqhXGR-KM-45" value="Roles" style="swimlane;childLayout=stackLayout;horizontal=1;startSize=30;horizontalStack=0;rounded=1;fontSize=14;fontStyle=0;strokeWidth=2;resizeParent=0;resizeLast=1;shadow=0;dashed=0;align=center;fillColor=#dae8fc;strokeColor=#6c8ebf;" parent="9jwT6VfsY7PpqhXGR-KM-1" vertex="1">
          <mxGeometry x="1408.75" y="1030" width="240" height="210" as="geometry" />
        </mxCell>
        <mxCell id="9jwT6VfsY7PpqhXGR-KM-46" value="+Role_D&#xa;+Name&#xa;+Description&#xa;+IsCustomRole&#xa;+IsEntityLevelRole&#xa;" style="align=left;strokeColor=none;fillColor=none;spacingLeft=4;fontSize=12;verticalAlign=top;resizable=0;rotatable=0;part=1;" parent="9jwT6VfsY7PpqhXGR-KM-45" vertex="1">
          <mxGeometry y="30" width="240" height="180" as="geometry" />
        </mxCell>
        <mxCell id="9jwT6VfsY7PpqhXGR-KM-47" style="edgeStyle=orthogonalEdgeStyle;rounded=0;orthogonalLoop=1;jettySize=auto;html=1;entryX=0;entryY=0.25;entryDx=0;entryDy=0;startArrow=ERzeroToMany;startFill=0;endArrow=ERoneToMany;endFill=0;endSize=10;startSize=10;strokeColor=#FF0000;strokeWidth=2;" parent="9jwT6VfsY7PpqhXGR-KM-1" target="9jwT6VfsY7PpqhXGR-KM-45" edge="1">
          <mxGeometry relative="1" as="geometry">
            <mxPoint x="840" y="1083" as="sourcePoint" />
          </mxGeometry>
        </mxCell>
        <mxCell id="9jwT6VfsY7PpqhXGR-KM-48" value="Actions" style="swimlane;childLayout=stackLayout;horizontal=1;startSize=30;horizontalStack=0;rounded=1;fontSize=14;fontStyle=0;strokeWidth=2;resizeParent=0;resizeLast=1;shadow=0;dashed=0;align=center;fillColor=#dae8fc;strokeColor=#6c8ebf;" parent="9jwT6VfsY7PpqhXGR-KM-1" vertex="1">
          <mxGeometry x="1418.75" y="1340" width="220" height="150" as="geometry" />
        </mxCell>
        <mxCell id="9jwT6VfsY7PpqhXGR-KM-49" value="+Action_ID&#xa;+Name&#xa;+Description&#xa;+" style="align=left;strokeColor=none;fillColor=none;spacingLeft=4;fontSize=12;verticalAlign=top;resizable=0;rotatable=0;part=1;" parent="9jwT6VfsY7PpqhXGR-KM-48" vertex="1">
          <mxGeometry y="30" width="220" height="120" as="geometry" />
        </mxCell>
        <mxCell id="9jwT6VfsY7PpqhXGR-KM-50" style="edgeStyle=orthogonalEdgeStyle;rounded=0;orthogonalLoop=1;jettySize=auto;html=1;exitX=0.5;exitY=1;exitDx=0;exitDy=0;entryX=0.5;entryY=0;entryDx=0;entryDy=0;startArrow=ERzeroToMany;startFill=0;endArrow=ERzeroToMany;endFill=0;endSize=10;startSize=10;" parent="9jwT6VfsY7PpqhXGR-KM-1" source="9jwT6VfsY7PpqhXGR-KM-46" target="9jwT6VfsY7PpqhXGR-KM-48" edge="1">
          <mxGeometry relative="1" as="geometry" />
        </mxCell>
        <mxCell id="9jwT6VfsY7PpqhXGR-KM-51" value="&lt;h1&gt;DataLens V2 Entity-Relationship Diagram DRAFT&lt;/h1&gt;&lt;p&gt;Authors: Nick Timkovich, Brian Harmon, Matt Wyatt, Abakash Samal, Brandon Sharp, Adarsh Khare, Heena Chitkara&lt;br&gt;Last Updated: October 3, 2022 (Nick addition of _Assignment tables)&lt;/p&gt;" style="text;html=1;strokeColor=none;fillColor=none;spacing=5;spacingTop=-20;whiteSpace=wrap;overflow=hidden;rounded=0;fontSize=16;" parent="9jwT6VfsY7PpqhXGR-KM-1" vertex="1">
          <mxGeometry x="73.75" y="30" width="876.25" height="120" as="geometry" />
        </mxCell>
        <mxCell id="9jwT6VfsY7PpqhXGR-KM-52" value="&lt;ul&gt;&lt;li&gt;If not shown, Many-to-Many relationships have an implied JOIN table between the entities.&lt;/li&gt;&lt;li&gt;Color Coding represents general entity collections for functional purposes.&lt;/li&gt;&lt;li&gt;Lookup and other tables are omitted for brevity&lt;/li&gt;&lt;li&gt;THIS IS A DRAFT and SUBJECT to change.&lt;/li&gt;&lt;/ul&gt;" style="text;html=1;strokeColor=none;fillColor=none;align=left;verticalAlign=top;whiteSpace=wrap;rounded=0;fontSize=16;" parent="9jwT6VfsY7PpqhXGR-KM-1" vertex="1">
          <mxGeometry x="1160" y="20" width="530" height="150" as="geometry" />
        </mxCell>
        <mxCell id="9jwT6VfsY7PpqhXGR-KM-53" style="edgeStyle=orthogonalEdgeStyle;rounded=0;orthogonalLoop=1;jettySize=auto;html=1;exitX=0.5;exitY=0;exitDx=0;exitDy=0;startArrow=ERzeroToOne;startFill=0;entryX=0.385;entryY=1.005;entryDx=0;entryDy=0;entryPerimeter=0;endArrow=ERoneToMany;endFill=0;endSize=10;startSize=10;" parent="9jwT6VfsY7PpqhXGR-KM-1" source="9jwT6VfsY7PpqhXGR-KM-54" target="9jwT6VfsY7PpqhXGR-KM-3" edge="1">
          <mxGeometry relative="1" as="geometry" />
        </mxCell>
        <mxCell id="9jwT6VfsY7PpqhXGR-KM-54" value="Attachment" style="swimlane;childLayout=stackLayout;horizontal=1;startSize=30;horizontalStack=0;rounded=1;fontSize=14;fontStyle=0;strokeWidth=2;resizeParent=0;resizeLast=1;shadow=0;dashed=0;align=center;fillColor=#ffe6cc;strokeColor=#d79b00;" parent="9jwT6VfsY7PpqhXGR-KM-1" vertex="1">
          <mxGeometry x="90" y="860" width="160" height="160" as="geometry" />
        </mxCell>
        <mxCell id="9jwT6VfsY7PpqhXGR-KM-55" value="+Attachment_ID&#xa;+DataRequest_ID&#xa;+DisplayNameforUI&#xa;+FileName&#xa;+ContentType&#xa;+" style="align=left;strokeColor=none;fillColor=none;spacingLeft=4;fontSize=12;verticalAlign=top;resizable=0;rotatable=0;part=1;" parent="9jwT6VfsY7PpqhXGR-KM-54" vertex="1">
          <mxGeometry y="30" width="160" height="130" as="geometry" />
        </mxCell>
        <mxCell id="9jwT6VfsY7PpqhXGR-KM-56" value="ProjectType indicates a &quot;My Stuff&quot; Project or other types (&quot;Research&quot;, &quot;Collaborative&quot;, etc].&amp;nbsp; &quot;My Stuff&quot; projects are used to manage a Person&#39;s Assets." style="text;html=1;strokeColor=none;fillColor=none;align=left;verticalAlign=top;whiteSpace=wrap;rounded=0;" parent="9jwT6VfsY7PpqhXGR-KM-1" vertex="1">
          <mxGeometry x="880" y="1470" width="190" height="140" as="geometry" />
        </mxCell>
        <mxCell id="9jwT6VfsY7PpqhXGR-KM-57" value="The Blue relationship lines indicate that the Assignment (&quot;Association&quot;) table will contain information about the Person&#39;s role and/or level of access to specific DRs, Protocols, Cohorts, or Projects.&lt;br&gt;&lt;br&gt;Examples:&lt;br&gt;- Homer can access Protocol #IRB-00090 because he&#39;s assigned to be the &quot;PI&quot; for that Protocol.&lt;br&gt;- Marge can edit DR#456-J7 because she&#39;s assigned to be the &quot;Research Coordinator&quot; for that DR.&lt;br&gt;&lt;br&gt;This level of permission control is record-level permissions, as compared to module-level permissions which are tied directly to the Person." style="text;html=1;strokeColor=none;fillColor=none;align=left;verticalAlign=top;whiteSpace=wrap;rounded=0;fontColor=#0000FF;fontStyle=1;horizontal=1;" parent="9jwT6VfsY7PpqhXGR-KM-1" vertex="1">
          <mxGeometry x="1170" y="190" width="500" height="170" as="geometry" />
        </mxCell>
        <mxCell id="9jwT6VfsY7PpqhXGR-KM-58" value="Roles and Actions that are tied directly to PERSON will control module-level permissions (as compared to record-level permissions) for a role in the application.&lt;br&gt;&lt;br&gt;Examples:&amp;nbsp;&lt;br&gt;- Requester can Access Data Requests module.&lt;br&gt;- Requester can create a new Data Request.&lt;br&gt;- Admin can manage User Accounts." style="text;html=1;strokeColor=none;fillColor=none;align=left;verticalAlign=top;whiteSpace=wrap;rounded=0;fontColor=#FF0000;" parent="9jwT6VfsY7PpqhXGR-KM-1" vertex="1">
          <mxGeometry x="1130" y="1105" width="260" height="135" as="geometry" />
        </mxCell>
        <mxCell id="9jwT6VfsY7PpqhXGR-KM-59" value="&lt;div style=&quot;font-family: Menlo, Monaco, &amp;quot;Courier New&amp;quot;, monospace; line-height: 18px;&quot;&gt;&lt;div style=&quot;&quot;&gt;RECORD-LEVEL ROLE EXAMPLES:&lt;/div&gt;&lt;div style=&quot;&quot;&gt;Person to Data Request Assignment Types&lt;/div&gt;&lt;br&gt;&lt;div style=&quot;&quot;&gt;- Person is OWNER of DataRequest&lt;/div&gt;&lt;div style=&quot;&quot;&gt;- Person is COLLABORATOR of DataRequest&lt;/div&gt;&lt;div style=&quot;&quot;&gt;- Person is PRINCIPAL REQUESTER of DataRequest&lt;/div&gt;&lt;div style=&quot;&quot;&gt;- Person is REQUEST MANAGER of DataRequest&lt;/div&gt;&lt;div style=&quot;&quot;&gt;- Person is RESEARCH ASSISTANT of DataRequest&lt;/div&gt;&lt;div style=&quot;&quot;&gt;- Person is DATA ANALYST of DataRequest&lt;/div&gt;&lt;div style=&quot;&quot;&gt;- Person is BIOSTATISTICIAN of DataRequest&lt;/div&gt;&lt;br&gt;&lt;br&gt;&lt;br&gt;&lt;div style=&quot;&quot;&gt;Person to Project Assignment Types&lt;/div&gt;&lt;div style=&quot;&quot;&gt;- Person is OWNER of Project&lt;/div&gt;&lt;div style=&quot;&quot;&gt;- Person is COLLABORATOR of Project&lt;/div&gt;&lt;div style=&quot;&quot;&gt;- Person is PRINCIPAL INVESTIGATOR of Project&lt;/div&gt;&lt;div style=&quot;&quot;&gt;- Person is CO-INVESTIGATOR of Project&lt;/div&gt;&lt;div style=&quot;&quot;&gt;- Person is RESEARCH ASSISTANT of Project&lt;/div&gt;&lt;div style=&quot;&quot;&gt;- Person is PROJECT MANAGER of Project&lt;/div&gt;&lt;div style=&quot;&quot;&gt;- Person is DATA ANALYST of Project&lt;/div&gt;&lt;div style=&quot;&quot;&gt;- Person is BIOSTATISTICIAN of Project&lt;/div&gt;&lt;div style=&quot;&quot;&gt;&lt;br&gt;&lt;/div&gt;&lt;div style=&quot;&quot;&gt;Roles can be &quot;standard&quot;, like &quot;OWNER&quot; or &quot;COLLABORATOR&quot;; or can be &quot;custom&quot; and tied to individual entities, such as &quot;Research Project X&quot; has &quot;PROJECT MANAGER&quot;, or &quot;CO-PI&quot;, that may not have any actions, or could be given permissions to that specific project.&lt;/div&gt;&lt;/div&gt;" style="text;html=1;strokeColor=none;fillColor=none;align=left;verticalAlign=top;whiteSpace=wrap;rounded=0;" parent="9jwT6VfsY7PpqhXGR-KM-1" vertex="1">
          <mxGeometry x="1190" y="1530" width="460" height="520" as="geometry" />
        </mxCell>
        <mxCell id="RqUztPoUdPdi1Sx-PnGn-2" style="edgeStyle=orthogonalEdgeStyle;rounded=0;orthogonalLoop=1;jettySize=auto;html=1;exitX=0.5;exitY=0;exitDx=0;exitDy=0;entryX=1.01;entryY=0.384;entryDx=0;entryDy=0;entryPerimeter=0;startArrow=ERoneToMany;startFill=0;endArrow=ERmandOne;endFill=0;strokeColor=#3333FF;strokeWidth=2;endSize=10;startSize=10;" parent="9jwT6VfsY7PpqhXGR-KM-1" source="RqUztPoUdPdi1Sx-PnGn-0" target="9jwT6VfsY7PpqhXGR-KM-5" edge="1">
          <mxGeometry relative="1" as="geometry">
            <Array as="points">
              <mxPoint x="1000" y="251" />
            </Array>
          </mxGeometry>
        </mxCell>
        <mxCell id="RqUztPoUdPdi1Sx-PnGn-0" value="Protocol_Assignment" style="swimlane;childLayout=stackLayout;horizontal=1;startSize=30;horizontalStack=0;rounded=1;fontSize=14;fontStyle=0;strokeWidth=2;resizeParent=0;resizeLast=1;shadow=0;dashed=0;align=center;fillColor=#dae8fc;strokeColor=#6c8ebf;" parent="9jwT6VfsY7PpqhXGR-KM-1" vertex="1">
          <mxGeometry x="920" y="300" width="160" height="200" as="geometry" />
        </mxCell>
        <mxCell id="RqUztPoUdPdi1Sx-PnGn-1" value="+Protocol_ID&#xa;+Person_ID&#xa;+Role_ID&#xa;+other info about a specific&#xa;  Person assigned to a &#xa;  specific Protocol" style="align=left;strokeColor=none;fillColor=none;spacingLeft=4;fontSize=12;verticalAlign=top;resizable=0;rotatable=0;part=1;" parent="RqUztPoUdPdi1Sx-PnGn-0" vertex="1">
          <mxGeometry y="30" width="160" height="170" as="geometry" />
        </mxCell>
        <mxCell id="RqUztPoUdPdi1Sx-PnGn-7" style="edgeStyle=orthogonalEdgeStyle;rounded=0;orthogonalLoop=1;jettySize=auto;html=1;exitX=1;exitY=0.5;exitDx=0;exitDy=0;entryX=0.75;entryY=0;entryDx=0;entryDy=0;strokeColor=#3333FF;strokeWidth=2;startArrow=ERzeroToMany;startFill=0;endArrow=ERmandOne;endFill=0;startSize=10;endSize=10;" parent="9jwT6VfsY7PpqhXGR-KM-1" source="RqUztPoUdPdi1Sx-PnGn-1" target="9jwT6VfsY7PpqhXGR-KM-45" edge="1">
          <mxGeometry relative="1" as="geometry" />
        </mxCell>
        <mxCell id="RqUztPoUdPdi1Sx-PnGn-8" value="Project_Assignment" style="swimlane;childLayout=stackLayout;horizontal=1;startSize=30;horizontalStack=0;rounded=1;fontSize=14;fontStyle=0;strokeWidth=2;resizeParent=0;resizeLast=1;shadow=0;dashed=0;align=center;fillColor=#dae8fc;strokeColor=#6c8ebf;" parent="9jwT6VfsY7PpqhXGR-KM-1" vertex="1">
          <mxGeometry x="360" y="1330" width="160" height="200" as="geometry" />
        </mxCell>
        <mxCell id="RqUztPoUdPdi1Sx-PnGn-9" value="+Project_ID&#xa;+Person_ID&#xa;+Role_ID&#xa;+other info about a specific&#xa;  Person assigned to a &#xa;  specific Project" style="align=left;strokeColor=none;fillColor=none;spacingLeft=4;fontSize=12;verticalAlign=top;resizable=0;rotatable=0;part=1;" parent="RqUztPoUdPdi1Sx-PnGn-8" vertex="1">
          <mxGeometry y="30" width="160" height="170" as="geometry" />
        </mxCell>
        <mxCell id="RqUztPoUdPdi1Sx-PnGn-10" style="edgeStyle=orthogonalEdgeStyle;rounded=0;orthogonalLoop=1;jettySize=auto;html=1;exitX=1;exitY=0.25;exitDx=0;exitDy=0;entryX=0.25;entryY=0;entryDx=0;entryDy=0;strokeColor=#3333FF;strokeWidth=2;startArrow=ERzeroToMany;startFill=0;endArrow=ERmandOne;endFill=0;startSize=10;endSize=10;" parent="9jwT6VfsY7PpqhXGR-KM-1" source="RqUztPoUdPdi1Sx-PnGn-9" target="9jwT6VfsY7PpqhXGR-KM-16" edge="1">
          <mxGeometry relative="1" as="geometry" />
        </mxCell>
        <mxCell id="RqUztPoUdPdi1Sx-PnGn-11" style="edgeStyle=orthogonalEdgeStyle;rounded=0;orthogonalLoop=1;jettySize=auto;html=1;exitX=0.25;exitY=1;exitDx=0;exitDy=0;entryX=1.006;entryY=0.137;entryDx=0;entryDy=0;entryPerimeter=0;strokeColor=#3333FF;strokeWidth=2;startArrow=ERmandOne;startFill=0;endArrow=ERzeroToMany;endFill=0;startSize=10;endSize=10;" parent="9jwT6VfsY7PpqhXGR-KM-1" source="9jwT6VfsY7PpqhXGR-KM-46" target="RqUztPoUdPdi1Sx-PnGn-9" edge="1">
          <mxGeometry relative="1" as="geometry">
            <Array as="points">
              <mxPoint x="1469" y="1290" />
              <mxPoint x="1260" y="1290" />
              <mxPoint x="1260" y="1383" />
            </Array>
          </mxGeometry>
        </mxCell>
        <mxCell id="RqUztPoUdPdi1Sx-PnGn-12" value="Cohort_Assignment" style="swimlane;childLayout=stackLayout;horizontal=1;startSize=30;horizontalStack=0;rounded=1;fontSize=14;fontStyle=0;strokeWidth=2;resizeParent=0;resizeLast=1;shadow=0;dashed=0;align=center;strokeColor=#6c8ebf;fillColor=#dae8fc;" parent="9jwT6VfsY7PpqhXGR-KM-1" vertex="1">
          <mxGeometry x="810" y="680" width="160" height="200" as="geometry" />
        </mxCell>
        <mxCell id="RqUztPoUdPdi1Sx-PnGn-13" value="+Cohort_ID&#xa;+Person_ID&#xa;+Role_ID&#xa;+other info about a specific&#xa;  Person assigned to a &#xa;  specific Cohort" style="align=left;strokeColor=none;fillColor=none;spacingLeft=4;fontSize=12;verticalAlign=top;resizable=0;rotatable=0;part=1;" parent="RqUztPoUdPdi1Sx-PnGn-12" vertex="1">
          <mxGeometry y="30" width="160" height="170" as="geometry" />
        </mxCell>
        <mxCell id="RqUztPoUdPdi1Sx-PnGn-15" style="edgeStyle=orthogonalEdgeStyle;rounded=0;orthogonalLoop=1;jettySize=auto;html=1;exitX=0;exitY=0.5;exitDx=0;exitDy=0;entryX=0.706;entryY=0.001;entryDx=0;entryDy=0;entryPerimeter=0;strokeColor=#3333FF;strokeWidth=2;startArrow=ERzeroToMany;startFill=0;endArrow=ERmandOne;endFill=0;startSize=10;endSize=10;" parent="9jwT6VfsY7PpqhXGR-KM-1" source="RqUztPoUdPdi1Sx-PnGn-13" target="9jwT6VfsY7PpqhXGR-KM-10" edge="1">
          <mxGeometry relative="1" as="geometry" />
        </mxCell>
        <mxCell id="RqUztPoUdPdi1Sx-PnGn-17" style="edgeStyle=orthogonalEdgeStyle;rounded=0;orthogonalLoop=1;jettySize=auto;html=1;exitX=1;exitY=0.5;exitDx=0;exitDy=0;entryX=0.25;entryY=0;entryDx=0;entryDy=0;strokeColor=#3333FF;strokeWidth=2;startArrow=ERzeroToMany;startFill=0;endArrow=ERmandOne;endFill=0;startSize=10;endSize=10;" parent="9jwT6VfsY7PpqhXGR-KM-1" source="RqUztPoUdPdi1Sx-PnGn-13" target="9jwT6VfsY7PpqhXGR-KM-45" edge="1">
          <mxGeometry relative="1" as="geometry" />
        </mxCell>
        <mxCell id="RqUztPoUdPdi1Sx-PnGn-18" value="DataRequest_Assignment" style="swimlane;childLayout=stackLayout;horizontal=1;startSize=30;horizontalStack=0;rounded=1;fontSize=14;fontStyle=0;strokeWidth=2;resizeParent=0;resizeLast=1;shadow=0;dashed=0;align=center;strokeColor=#6c8ebf;fillColor=#dae8fc;" parent="9jwT6VfsY7PpqhXGR-KM-1" vertex="1">
          <mxGeometry x="410" y="620" width="200" height="200" as="geometry" />
        </mxCell>
        <mxCell id="RqUztPoUdPdi1Sx-PnGn-19" value="+DataRequest_ID&#xa;+Person_ID&#xa;+Role_ID&#xa;+other info about a specific&#xa;  Person assigned to a &#xa;  specific Data Request" style="align=left;strokeColor=none;fillColor=none;spacingLeft=4;fontSize=12;verticalAlign=top;resizable=0;rotatable=0;part=1;" parent="RqUztPoUdPdi1Sx-PnGn-18" vertex="1">
          <mxGeometry y="30" width="200" height="170" as="geometry" />
        </mxCell>
        <mxCell id="RqUztPoUdPdi1Sx-PnGn-20" style="edgeStyle=orthogonalEdgeStyle;rounded=0;orthogonalLoop=1;jettySize=auto;html=1;exitX=1;exitY=0.75;exitDx=0;exitDy=0;entryX=0.25;entryY=0;entryDx=0;entryDy=0;strokeColor=#3333FF;strokeWidth=2;fontColor=#FFFFFF;startArrow=ERzeroToMany;startFill=0;endArrow=ERmandOne;endFill=0;startSize=10;endSize=10;" parent="9jwT6VfsY7PpqhXGR-KM-1" source="RqUztPoUdPdi1Sx-PnGn-19" target="9jwT6VfsY7PpqhXGR-KM-10" edge="1">
          <mxGeometry relative="1" as="geometry" />
        </mxCell>
        <mxCell id="RqUztPoUdPdi1Sx-PnGn-22" style="edgeStyle=orthogonalEdgeStyle;rounded=0;orthogonalLoop=1;jettySize=auto;html=1;exitX=1;exitY=0;exitDx=0;exitDy=0;entryX=0.5;entryY=0;entryDx=0;entryDy=0;strokeColor=#3333FF;strokeWidth=2;fontColor=#FFFFFF;startArrow=ERzeroToMany;startFill=0;endArrow=ERmandOne;endFill=0;startSize=10;endSize=10;" parent="9jwT6VfsY7PpqhXGR-KM-1" source="RqUztPoUdPdi1Sx-PnGn-19" target="9jwT6VfsY7PpqhXGR-KM-45" edge="1">
          <mxGeometry relative="1" as="geometry">
            <Array as="points">
              <mxPoint x="1529" y="650" />
            </Array>
          </mxGeometry>
        </mxCell>
      </root>
    </mxGraphModel>
  </diagram>
  <diagram name="Person Role Permission" id="u75_fXZrPRD8PWQ-MWaT">
    <mxGraphModel dx="1181" dy="777" grid="1" gridSize="10" guides="1" tooltips="1" connect="1" arrows="1" fold="1" page="1" pageScale="1" pageWidth="850" pageHeight="1100" math="0" shadow="0">
      <root>
        <mxCell id="dMr1oW0Q8ULhSIMcVtM5-0" />
        <mxCell id="dMr1oW0Q8ULhSIMcVtM5-1" parent="dMr1oW0Q8ULhSIMcVtM5-0" />
        <mxCell id="dMr1oW0Q8ULhSIMcVtM5-2" value="DataRequest" style="swimlane;childLayout=stackLayout;horizontal=1;startSize=30;horizontalStack=0;rounded=1;fontSize=14;fontStyle=0;strokeWidth=2;resizeParent=0;resizeLast=1;shadow=0;dashed=0;align=center;fillColor=#ffe6cc;strokeColor=#d79b00;" parent="dMr1oW0Q8ULhSIMcVtM5-1" vertex="1">
          <mxGeometry x="60" y="290" width="275" height="250" as="geometry" />
        </mxCell>
        <mxCell id="dMr1oW0Q8ULhSIMcVtM5-3" value="+DataRequest_ID&#xa;+Name&#xa;+Status&#xa;+Protocol_ID&#xa;+Project_ID&#xa;+GitLabIssue_ID&#xa;+Visibility&#xa;+ MUCH MUCH MORE!!" style="align=left;strokeColor=none;fillColor=none;spacingLeft=4;fontSize=12;verticalAlign=top;resizable=0;rotatable=0;part=1;" parent="dMr1oW0Q8ULhSIMcVtM5-2" vertex="1">
          <mxGeometry y="30" width="275" height="220" as="geometry" />
        </mxCell>
        <mxCell id="dMr1oW0Q8ULhSIMcVtM5-4" value="Protocol" style="swimlane;childLayout=stackLayout;horizontal=1;startSize=30;horizontalStack=0;rounded=1;fontSize=14;fontStyle=0;strokeWidth=2;resizeParent=0;resizeLast=1;shadow=0;dashed=0;align=center;fillColor=#ffe6cc;strokeColor=#d79b00;" parent="dMr1oW0Q8ULhSIMcVtM5-1" vertex="1">
          <mxGeometry x="638.75" y="160" width="230" height="190" as="geometry" />
        </mxCell>
        <mxCell id="dMr1oW0Q8ULhSIMcVtM5-5" value="+Protocol_ID&#xa;+IRAP_ID&#xa;+Name&#xa;+Visibility" style="align=left;strokeColor=none;fillColor=none;spacingLeft=4;fontSize=12;verticalAlign=top;resizable=0;rotatable=0;part=1;" parent="dMr1oW0Q8ULhSIMcVtM5-4" vertex="1">
          <mxGeometry y="30" width="230" height="160" as="geometry" />
        </mxCell>
        <mxCell id="dMr1oW0Q8ULhSIMcVtM5-6" value="Cohort" style="swimlane;childLayout=stackLayout;horizontal=1;startSize=30;horizontalStack=0;rounded=1;fontSize=14;fontStyle=0;strokeWidth=2;resizeParent=0;resizeLast=1;shadow=0;dashed=0;align=center;fillColor=#ffe6cc;strokeColor=#d79b00;" parent="dMr1oW0Q8ULhSIMcVtM5-1" vertex="1">
          <mxGeometry x="638.75" y="400" width="230" height="200" as="geometry" />
        </mxCell>
        <mxCell id="dMr1oW0Q8ULhSIMcVtM5-7" value="+Cohort_ID&#xa;+Source&#xa;+Name&#xa;+Visibility" style="align=left;strokeColor=none;fillColor=none;spacingLeft=4;fontSize=12;verticalAlign=top;resizable=0;rotatable=0;part=1;" parent="dMr1oW0Q8ULhSIMcVtM5-6" vertex="1">
          <mxGeometry y="30" width="230" height="170" as="geometry" />
        </mxCell>
        <mxCell id="dMr1oW0Q8ULhSIMcVtM5-8" style="edgeStyle=orthogonalEdgeStyle;rounded=0;orthogonalLoop=1;jettySize=auto;html=1;exitX=0.5;exitY=0;exitDx=0;exitDy=0;entryX=1;entryY=0.5;entryDx=0;entryDy=0;startArrow=ERoneToMany;startFill=0;endArrow=ERmandOne;endFill=0;endSize=10;startSize=10;strokeWidth=2;strokeColor=#0000FF;" parent="dMr1oW0Q8ULhSIMcVtM5-1" source="dMr1oW0Q8ULhSIMcVtM5-69" target="dMr1oW0Q8ULhSIMcVtM5-3" edge="1">
          <mxGeometry relative="1" as="geometry">
            <mxPoint x="718.75" y="820" as="targetPoint" />
            <Array as="points">
              <mxPoint x="510" y="430" />
            </Array>
          </mxGeometry>
        </mxCell>
        <mxCell id="dMr1oW0Q8ULhSIMcVtM5-9" style="edgeStyle=orthogonalEdgeStyle;rounded=0;orthogonalLoop=1;jettySize=auto;html=1;exitX=0;exitY=0.25;exitDx=0;exitDy=0;entryX=0.566;entryY=1.009;entryDx=0;entryDy=0;startArrow=ERoneToMany;startFill=0;endArrow=ERmandOne;endFill=0;entryPerimeter=0;endSize=10;startSize=10;strokeColor=#0000FF;strokeWidth=2;" parent="dMr1oW0Q8ULhSIMcVtM5-1" source="dMr1oW0Q8ULhSIMcVtM5-66" target="dMr1oW0Q8ULhSIMcVtM5-7" edge="1">
          <mxGeometry relative="1" as="geometry">
            <mxPoint x="1068.75" y="580" as="targetPoint" />
            <Array as="points">
              <mxPoint x="769" y="752" />
            </Array>
          </mxGeometry>
        </mxCell>
        <mxCell id="dMr1oW0Q8ULhSIMcVtM5-10" value="Person" style="swimlane;childLayout=stackLayout;horizontal=1;startSize=30;horizontalStack=0;rounded=1;fontSize=14;fontStyle=0;strokeWidth=2;resizeParent=0;resizeLast=1;shadow=0;dashed=0;align=center;fillColor=#d5e8d4;strokeColor=#82b366;" parent="dMr1oW0Q8ULhSIMcVtM5-1" vertex="1">
          <mxGeometry x="598.75" y="910" width="240" height="330" as="geometry" />
        </mxCell>
        <mxCell id="dMr1oW0Q8ULhSIMcVtM5-11" value="+Person_ID (IDENTITY, arbitrary)&#xa;+Name&#xa;+Email&#xa;+Institution_ID&#xa;+AstrologicalSign&#xa;+FavoriteColor&#xa;+blazerID&#xa;+UABMC_ID&#xa;+other stuff all about system access &#xa;     OR Person-as-entity" style="align=left;strokeColor=none;fillColor=none;spacingLeft=4;fontSize=12;verticalAlign=top;resizable=0;rotatable=0;part=1;" parent="dMr1oW0Q8ULhSIMcVtM5-10" vertex="1">
          <mxGeometry y="30" width="240" height="300" as="geometry" />
        </mxCell>
        <mxCell id="dMr1oW0Q8ULhSIMcVtM5-12" style="edgeStyle=orthogonalEdgeStyle;rounded=0;orthogonalLoop=1;jettySize=auto;html=1;exitX=1.005;exitY=0.333;exitDx=0;exitDy=0;startArrow=ERmandOne;startFill=0;endArrow=ERzeroToMany;endFill=0;entryX=0.5;entryY=1;entryDx=0;entryDy=0;endSize=10;startSize=10;exitPerimeter=0;" parent="dMr1oW0Q8ULhSIMcVtM5-1" source="dMr1oW0Q8ULhSIMcVtM5-11" target="dMr1oW0Q8ULhSIMcVtM5-24" edge="1">
          <mxGeometry relative="1" as="geometry">
            <mxPoint x="848.75" y="1110" as="targetPoint" />
            <mxPoint x="1193.75" y="930" as="sourcePoint" />
          </mxGeometry>
        </mxCell>
        <mxCell id="dMr1oW0Q8ULhSIMcVtM5-13" style="edgeStyle=orthogonalEdgeStyle;rounded=0;orthogonalLoop=1;jettySize=auto;html=1;exitX=1;exitY=0.75;exitDx=0;exitDy=0;entryX=1;entryY=0;entryDx=0;entryDy=0;startArrow=ERzeroToMany;startFill=0;endArrow=ERzeroToMany;endFill=0;endSize=10;startSize=10;strokeColor=#00CC00;strokeWidth=2;" parent="dMr1oW0Q8ULhSIMcVtM5-1" source="dMr1oW0Q8ULhSIMcVtM5-15" target="dMr1oW0Q8ULhSIMcVtM5-5" edge="1">
          <mxGeometry relative="1" as="geometry">
            <Array as="points">
              <mxPoint x="1110" y="1635" />
              <mxPoint x="1110" y="190" />
            </Array>
            <mxPoint x="1308.75" y="310" as="targetPoint" />
          </mxGeometry>
        </mxCell>
        <mxCell id="dMr1oW0Q8ULhSIMcVtM5-14" value="Project" style="swimlane;childLayout=stackLayout;horizontal=1;startSize=30;horizontalStack=0;rounded=1;fontSize=14;fontStyle=0;strokeWidth=2;resizeParent=0;resizeLast=1;shadow=0;dashed=0;align=center;fillColor=#f5f5f5;strokeColor=#666666;fontColor=#333333;" parent="dMr1oW0Q8ULhSIMcVtM5-1" vertex="1">
          <mxGeometry x="598.75" y="1470" width="260" height="210" as="geometry" />
        </mxCell>
        <mxCell id="dMr1oW0Q8ULhSIMcVtM5-15" value="+Project_ID&#xa;+Name&#xa;+Description&#xa;+ProjectType" style="align=left;strokeColor=none;fillColor=none;spacingLeft=4;fontSize=12;verticalAlign=top;resizable=0;rotatable=0;part=1;" parent="dMr1oW0Q8ULhSIMcVtM5-14" vertex="1">
          <mxGeometry y="30" width="260" height="180" as="geometry" />
        </mxCell>
        <mxCell id="dMr1oW0Q8ULhSIMcVtM5-16" style="edgeStyle=orthogonalEdgeStyle;rounded=0;orthogonalLoop=1;jettySize=auto;html=1;exitX=0;exitY=0;exitDx=0;exitDy=0;entryX=0.75;entryY=0;entryDx=0;entryDy=0;startArrow=ERzeroToOne;startFill=0;endArrow=ERzeroToMany;endFill=0;strokeWidth=2;endSize=10;startSize=10;strokeColor=#00CC00;" parent="dMr1oW0Q8ULhSIMcVtM5-1" source="dMr1oW0Q8ULhSIMcVtM5-5" target="dMr1oW0Q8ULhSIMcVtM5-2" edge="1">
          <mxGeometry relative="1" as="geometry">
            <Array as="points">
              <mxPoint x="266" y="190" />
            </Array>
          </mxGeometry>
        </mxCell>
        <mxCell id="dMr1oW0Q8ULhSIMcVtM5-17" style="edgeStyle=orthogonalEdgeStyle;rounded=0;orthogonalLoop=1;jettySize=auto;html=1;startArrow=ERzeroToMany;startFill=0;endArrow=ERzeroToOne;endFill=0;entryX=0;entryY=0.75;entryDx=0;entryDy=0;exitX=0.25;exitY=1;exitDx=0;exitDy=0;endSize=10;startSize=10;strokeWidth=2;strokeColor=#00CC00;" parent="dMr1oW0Q8ULhSIMcVtM5-1" source="dMr1oW0Q8ULhSIMcVtM5-3" target="dMr1oW0Q8ULhSIMcVtM5-15" edge="1">
          <mxGeometry relative="1" as="geometry">
            <Array as="points">
              <mxPoint x="129" y="830" />
              <mxPoint x="64" y="830" />
              <mxPoint x="64" y="1635" />
            </Array>
            <mxPoint x="278.75" y="760" as="sourcePoint" />
            <mxPoint x="698.75" y="1550" as="targetPoint" />
          </mxGeometry>
        </mxCell>
        <mxCell id="dMr1oW0Q8ULhSIMcVtM5-18" style="edgeStyle=orthogonalEdgeStyle;rounded=0;orthogonalLoop=1;jettySize=auto;html=1;exitX=0.5;exitY=0;exitDx=0;exitDy=0;startArrow=ERzeroToMany;startFill=0;endArrow=ERoneToMany;endFill=0;entryX=0.5;entryY=1;entryDx=0;entryDy=0;endSize=10;startSize=10;strokeColor=#00CC00;strokeWidth=2;" parent="dMr1oW0Q8ULhSIMcVtM5-1" source="dMr1oW0Q8ULhSIMcVtM5-19" target="dMr1oW0Q8ULhSIMcVtM5-15" edge="1">
          <mxGeometry relative="1" as="geometry">
            <mxPoint x="898.75" y="2160" as="targetPoint" />
          </mxGeometry>
        </mxCell>
        <mxCell id="dMr1oW0Q8ULhSIMcVtM5-19" value="Asset" style="swimlane;childLayout=stackLayout;horizontal=1;startSize=30;horizontalStack=0;rounded=1;fontSize=14;fontStyle=0;strokeWidth=2;resizeParent=0;resizeLast=1;shadow=0;dashed=0;align=center;fillColor=#f5f5f5;strokeColor=#666666;fontColor=#333333;" parent="dMr1oW0Q8ULhSIMcVtM5-1" vertex="1">
          <mxGeometry x="598.75" y="1770" width="260" height="210" as="geometry" />
        </mxCell>
        <mxCell id="dMr1oW0Q8ULhSIMcVtM5-20" value="+Asset_ID&#xa;+Type&#xa;+ContentType&#xa;+Name&#xa;+URL&#xa;+other standard Asset columns" style="align=left;strokeColor=none;fillColor=none;spacingLeft=4;fontSize=12;verticalAlign=top;resizable=0;rotatable=0;part=1;" parent="dMr1oW0Q8ULhSIMcVtM5-19" vertex="1">
          <mxGeometry y="30" width="260" height="180" as="geometry" />
        </mxCell>
        <mxCell id="dMr1oW0Q8ULhSIMcVtM5-21" style="edgeStyle=orthogonalEdgeStyle;rounded=0;orthogonalLoop=1;jettySize=auto;html=1;exitX=1;exitY=0.25;exitDx=0;exitDy=0;entryX=0.75;entryY=1;entryDx=0;entryDy=0;startArrow=ERmandOne;startFill=0;endArrow=ERzeroToMany;endFill=0;endSize=10;startSize=10;strokeColor=#0000FF;strokeWidth=2;" parent="dMr1oW0Q8ULhSIMcVtM5-1" source="dMr1oW0Q8ULhSIMcVtM5-11" target="dMr1oW0Q8ULhSIMcVtM5-59" edge="1">
          <mxGeometry relative="1" as="geometry">
            <Array as="points">
              <mxPoint x="1040" y="1015" />
            </Array>
            <mxPoint x="1158.75" y="62.5" as="targetPoint" />
          </mxGeometry>
        </mxCell>
        <mxCell id="dMr1oW0Q8ULhSIMcVtM5-22" style="edgeStyle=orthogonalEdgeStyle;rounded=0;orthogonalLoop=1;jettySize=auto;html=1;exitX=0;exitY=0.5;exitDx=0;exitDy=0;entryX=1;entryY=0.25;entryDx=0;entryDy=0;startArrow=ERzeroToMany;startFill=0;endArrow=ERzeroToMany;endFill=0;endSize=10;startSize=10;strokeColor=#00CC00;strokeWidth=2;" parent="dMr1oW0Q8ULhSIMcVtM5-1" source="dMr1oW0Q8ULhSIMcVtM5-7" target="dMr1oW0Q8ULhSIMcVtM5-3" edge="1">
          <mxGeometry relative="1" as="geometry">
            <Array as="points">
              <mxPoint x="574" y="515" />
              <mxPoint x="574" y="375" />
            </Array>
            <mxPoint x="378.75" y="516.02" as="sourcePoint" />
          </mxGeometry>
        </mxCell>
        <mxCell id="dMr1oW0Q8ULhSIMcVtM5-23" style="edgeStyle=orthogonalEdgeStyle;rounded=0;orthogonalLoop=1;jettySize=auto;html=1;entryX=0.25;entryY=1;entryDx=0;entryDy=0;startArrow=ERzeroToMany;startFill=0;endArrow=ERmandOne;endFill=0;exitX=1;exitY=0;exitDx=0;exitDy=0;endSize=10;startSize=10;strokeColor=#0000FF;strokeWidth=2;" parent="dMr1oW0Q8ULhSIMcVtM5-1" source="dMr1oW0Q8ULhSIMcVtM5-62" target="dMr1oW0Q8ULhSIMcVtM5-11" edge="1">
          <mxGeometry relative="1" as="geometry">
            <mxPoint x="778.75" y="1560" as="sourcePoint" />
            <Array as="points">
              <mxPoint x="659" y="1360" />
            </Array>
          </mxGeometry>
        </mxCell>
        <mxCell id="dMr1oW0Q8ULhSIMcVtM5-24" value="&lt;font style=&quot;font-size: 16px;&quot;&gt;&lt;b&gt;All Tables/Audit Logs&lt;/b&gt;&lt;/font&gt;&lt;br&gt;(CreatedBy, UpdatedBy, Logins,&amp;nbsp;&lt;br&gt;Downloads, Admin Activity, etc)" style="whiteSpace=wrap;html=1;align=center;" parent="dMr1oW0Q8ULhSIMcVtM5-1" vertex="1">
          <mxGeometry x="1160" y="895" width="180" height="90" as="geometry" />
        </mxCell>
        <mxCell id="dMr1oW0Q8ULhSIMcVtM5-25" style="edgeStyle=orthogonalEdgeStyle;rounded=0;orthogonalLoop=1;jettySize=auto;html=1;entryX=1;entryY=0.75;entryDx=0;entryDy=0;startArrow=ERzeroToMany;startFill=0;endArrow=ERzeroToMany;endFill=0;exitX=0.615;exitY=0.005;exitDx=0;exitDy=0;exitPerimeter=0;endSize=10;startSize=10;strokeColor=#00CC00;strokeWidth=2;" parent="dMr1oW0Q8ULhSIMcVtM5-1" source="dMr1oW0Q8ULhSIMcVtM5-14" target="dMr1oW0Q8ULhSIMcVtM5-7" edge="1">
          <mxGeometry relative="1" as="geometry">
            <Array as="points">
              <mxPoint x="759" y="1300" />
              <mxPoint x="1080" y="1300" />
              <mxPoint x="1080" y="558" />
            </Array>
            <mxPoint x="888.75" y="1560" as="sourcePoint" />
            <mxPoint x="1028.75" y="752.5" as="targetPoint" />
          </mxGeometry>
        </mxCell>
        <mxCell id="dMr1oW0Q8ULhSIMcVtM5-26" value="ClinicalDataSet" style="swimlane;childLayout=stackLayout;horizontal=1;startSize=30;horizontalStack=0;rounded=1;fontSize=14;fontStyle=0;strokeWidth=2;resizeParent=0;resizeLast=1;shadow=0;dashed=0;align=center;fillColor=#ffe6cc;strokeColor=#d79b00;" parent="dMr1oW0Q8ULhSIMcVtM5-1" vertex="1">
          <mxGeometry x="188.75" y="610" width="200" height="160" as="geometry" />
        </mxCell>
        <mxCell id="dMr1oW0Q8ULhSIMcVtM5-27" value="+ClinicalDataSet_ID&#xa;+DataRequest_ID&#xa;+FileName&#xa;+ContentType&#xa;+Description&#xa;+DataSetType (PHI, LDS, etc)&#xa;+IsFinalDeliverable&#xa;+HasBeenReviewed" style="align=left;strokeColor=none;fillColor=none;spacingLeft=4;fontSize=12;verticalAlign=top;resizable=0;rotatable=0;part=1;" parent="dMr1oW0Q8ULhSIMcVtM5-26" vertex="1">
          <mxGeometry y="30" width="200" height="130" as="geometry" />
        </mxCell>
        <mxCell id="dMr1oW0Q8ULhSIMcVtM5-28" style="edgeStyle=orthogonalEdgeStyle;rounded=0;orthogonalLoop=1;jettySize=auto;html=1;entryX=0.5;entryY=0;entryDx=0;entryDy=0;startArrow=ERzeroToOne;startFill=0;endArrow=ERzeroToMany;endFill=0;endSize=10;startSize=10;exitX=0.576;exitY=0.995;exitDx=0;exitDy=0;exitPerimeter=0;" parent="dMr1oW0Q8ULhSIMcVtM5-1" source="dMr1oW0Q8ULhSIMcVtM5-3" target="dMr1oW0Q8ULhSIMcVtM5-26" edge="1">
          <mxGeometry relative="1" as="geometry" />
        </mxCell>
        <mxCell id="dMr1oW0Q8ULhSIMcVtM5-29" value="EventLog" style="swimlane;childLayout=stackLayout;horizontal=1;startSize=30;horizontalStack=0;rounded=1;fontSize=14;fontStyle=0;strokeWidth=2;resizeParent=0;resizeLast=1;shadow=0;dashed=0;align=center;fillColor=#fff2cc;strokeColor=#d6b656;" parent="dMr1oW0Q8ULhSIMcVtM5-1" vertex="1">
          <mxGeometry x="73.75" y="1700" width="160" height="120" as="geometry" />
        </mxCell>
        <mxCell id="dMr1oW0Q8ULhSIMcVtM5-30" value="+EventID&#xa;+SourceModule_ID&#xa;+Message&#xa;+StackTrace&#xa;+EventDate" style="align=left;strokeColor=none;fillColor=none;spacingLeft=4;fontSize=12;verticalAlign=top;resizable=0;rotatable=0;part=1;" parent="dMr1oW0Q8ULhSIMcVtM5-29" vertex="1">
          <mxGeometry y="30" width="160" height="90" as="geometry" />
        </mxCell>
        <mxCell id="dMr1oW0Q8ULhSIMcVtM5-31" value="AppSettings" style="swimlane;childLayout=stackLayout;horizontal=1;startSize=30;horizontalStack=0;rounded=1;fontSize=14;fontStyle=0;strokeWidth=2;resizeParent=0;resizeLast=1;shadow=0;dashed=0;align=center;fillColor=#fff2cc;strokeColor=#d6b656;" parent="dMr1oW0Q8ULhSIMcVtM5-1" vertex="1">
          <mxGeometry x="73.75" y="1870" width="160" height="120" as="geometry" />
        </mxCell>
        <mxCell id="dMr1oW0Q8ULhSIMcVtM5-32" value="+AppSettingID&#xa;+Name&#xa;+Value" style="align=left;strokeColor=none;fillColor=none;spacingLeft=4;fontSize=12;verticalAlign=top;resizable=0;rotatable=0;part=1;" parent="dMr1oW0Q8ULhSIMcVtM5-31" vertex="1">
          <mxGeometry y="30" width="160" height="90" as="geometry" />
        </mxCell>
        <mxCell id="dMr1oW0Q8ULhSIMcVtM5-33" value="Institution" style="swimlane;childLayout=stackLayout;horizontal=1;startSize=30;horizontalStack=0;rounded=1;fontSize=14;fontStyle=0;strokeWidth=2;resizeParent=0;resizeLast=1;shadow=0;dashed=0;align=center;fillColor=#d5e8d4;strokeColor=#82b366;" parent="dMr1oW0Q8ULhSIMcVtM5-1" vertex="1">
          <mxGeometry x="140" y="1210" width="160" height="120" as="geometry" />
        </mxCell>
        <mxCell id="dMr1oW0Q8ULhSIMcVtM5-34" value="+Institution_ID&#xa;+InstitutionName" style="align=left;strokeColor=none;fillColor=none;spacingLeft=4;fontSize=12;verticalAlign=top;resizable=0;rotatable=0;part=1;" parent="dMr1oW0Q8ULhSIMcVtM5-33" vertex="1">
          <mxGeometry y="30" width="160" height="90" as="geometry" />
        </mxCell>
        <mxCell id="dMr1oW0Q8ULhSIMcVtM5-35" style="edgeStyle=orthogonalEdgeStyle;rounded=0;orthogonalLoop=1;jettySize=auto;html=1;exitX=-0.016;exitY=0.882;exitDx=0;exitDy=0;entryX=1.006;entryY=0.339;entryDx=0;entryDy=0;entryPerimeter=0;endArrow=ERzeroToOne;endFill=0;startArrow=ERzeroToMany;startFill=0;endSize=8;startSize=8;exitPerimeter=0;" parent="dMr1oW0Q8ULhSIMcVtM5-1" source="dMr1oW0Q8ULhSIMcVtM5-11" target="dMr1oW0Q8ULhSIMcVtM5-34" edge="1">
          <mxGeometry relative="1" as="geometry">
            <mxPoint x="353.75" y="1222.5" as="sourcePoint" />
          </mxGeometry>
        </mxCell>
        <mxCell id="dMr1oW0Q8ULhSIMcVtM5-36" value="Training" style="swimlane;childLayout=stackLayout;horizontal=1;startSize=30;horizontalStack=0;rounded=1;fontSize=14;fontStyle=0;strokeWidth=2;resizeParent=0;resizeLast=1;shadow=0;dashed=0;align=center;fillColor=#d5e8d4;strokeColor=#82b366;" parent="dMr1oW0Q8ULhSIMcVtM5-1" vertex="1">
          <mxGeometry x="280" y="865" width="160" height="120" as="geometry" />
        </mxCell>
        <mxCell id="dMr1oW0Q8ULhSIMcVtM5-37" value="+Training_ID&#xa;+Person_ID&#xa;+TrainingName" style="align=left;strokeColor=none;fillColor=none;spacingLeft=4;fontSize=12;verticalAlign=top;resizable=0;rotatable=0;part=1;" parent="dMr1oW0Q8ULhSIMcVtM5-36" vertex="1">
          <mxGeometry y="30" width="160" height="90" as="geometry" />
        </mxCell>
        <mxCell id="dMr1oW0Q8ULhSIMcVtM5-38" style="edgeStyle=orthogonalEdgeStyle;rounded=0;orthogonalLoop=1;jettySize=auto;html=1;exitX=1;exitY=0.25;exitDx=0;exitDy=0;entryX=-0.005;entryY=0.173;entryDx=0;entryDy=0;entryPerimeter=0;startArrow=ERzeroToMany;startFill=0;endArrow=ERmandOne;endFill=0;endSize=10;startSize=10;" parent="dMr1oW0Q8ULhSIMcVtM5-1" source="dMr1oW0Q8ULhSIMcVtM5-37" target="dMr1oW0Q8ULhSIMcVtM5-11" edge="1">
          <mxGeometry relative="1" as="geometry">
            <Array as="points">
              <mxPoint x="520" y="918" />
              <mxPoint x="520" y="992" />
            </Array>
          </mxGeometry>
        </mxCell>
        <mxCell id="dMr1oW0Q8ULhSIMcVtM5-39" style="edgeStyle=orthogonalEdgeStyle;rounded=0;orthogonalLoop=1;jettySize=auto;html=1;entryX=-0.006;entryY=0.322;entryDx=0;entryDy=0;entryPerimeter=0;startArrow=ERzeroToMany;startFill=0;endArrow=ERmandOne;endFill=0;exitX=1;exitY=0.25;exitDx=0;exitDy=0;endSize=8;startSize=8;" parent="dMr1oW0Q8ULhSIMcVtM5-1" source="dMr1oW0Q8ULhSIMcVtM5-41" target="dMr1oW0Q8ULhSIMcVtM5-11" edge="1">
          <mxGeometry relative="1" as="geometry">
            <mxPoint x="523.75" y="1040" as="sourcePoint" />
            <Array as="points">
              <mxPoint x="540" y="1085" />
              <mxPoint x="540" y="1037" />
            </Array>
          </mxGeometry>
        </mxCell>
        <mxCell id="dMr1oW0Q8ULhSIMcVtM5-40" value="RelatedSystemInfo" style="swimlane;childLayout=stackLayout;horizontal=1;startSize=30;horizontalStack=0;rounded=1;fontSize=14;fontStyle=0;strokeWidth=2;resizeParent=0;resizeLast=1;shadow=0;dashed=0;align=center;fillColor=#d5e8d4;strokeColor=#82b366;" parent="dMr1oW0Q8ULhSIMcVtM5-1" vertex="1">
          <mxGeometry x="280" y="1030" width="210" height="130" as="geometry" />
        </mxCell>
        <mxCell id="dMr1oW0Q8ULhSIMcVtM5-41" value="+RelatedSystemInfo_ID&#xa;+Person_ID&#xa;+RelatedSystemName&#xa;+RelatedSystem_ID&#xa;+Other important info about &#xa;   that Person&#39;s related records." style="align=left;strokeColor=none;fillColor=none;spacingLeft=4;fontSize=12;verticalAlign=top;resizable=0;rotatable=0;part=1;" parent="dMr1oW0Q8ULhSIMcVtM5-40" vertex="1">
          <mxGeometry y="30" width="210" height="100" as="geometry" />
        </mxCell>
        <mxCell id="dMr1oW0Q8ULhSIMcVtM5-42" value="Roles" style="swimlane;childLayout=stackLayout;horizontal=1;startSize=30;horizontalStack=0;rounded=1;fontSize=14;fontStyle=0;strokeWidth=2;resizeParent=0;resizeLast=1;shadow=0;dashed=0;align=center;fillColor=#dae8fc;strokeColor=#6c8ebf;" parent="dMr1oW0Q8ULhSIMcVtM5-1" vertex="1">
          <mxGeometry x="1408.75" y="1030" width="240" height="210" as="geometry" />
        </mxCell>
        <mxCell id="dMr1oW0Q8ULhSIMcVtM5-43" value="+Role_D&#xa;+Name&#xa;+Description&#xa;+IsCustomRole&#xa;+IsEntityRole&#xa;" style="align=left;strokeColor=none;fillColor=none;spacingLeft=4;fontSize=12;verticalAlign=top;resizable=0;rotatable=0;part=1;" parent="dMr1oW0Q8ULhSIMcVtM5-42" vertex="1">
          <mxGeometry y="30" width="240" height="180" as="geometry" />
        </mxCell>
        <mxCell id="dMr1oW0Q8ULhSIMcVtM5-44" style="edgeStyle=orthogonalEdgeStyle;rounded=0;orthogonalLoop=1;jettySize=auto;html=1;entryX=0;entryY=0.25;entryDx=0;entryDy=0;startArrow=ERzeroToMany;startFill=0;endArrow=ERmandOne;endFill=0;endSize=10;startSize=10;strokeColor=#FF0000;strokeWidth=2;" parent="dMr1oW0Q8ULhSIMcVtM5-1" target="dMr1oW0Q8ULhSIMcVtM5-42" edge="1">
          <mxGeometry relative="1" as="geometry">
            <mxPoint x="840" y="1083" as="sourcePoint" />
          </mxGeometry>
        </mxCell>
        <mxCell id="dMr1oW0Q8ULhSIMcVtM5-45" value="Permissions" style="swimlane;childLayout=stackLayout;horizontal=1;startSize=30;horizontalStack=0;rounded=1;fontSize=14;fontStyle=0;strokeWidth=2;resizeParent=0;resizeLast=1;shadow=0;dashed=0;align=center;fillColor=#dae8fc;strokeColor=#6c8ebf;" parent="dMr1oW0Q8ULhSIMcVtM5-1" vertex="1">
          <mxGeometry x="1418.75" y="1340" width="220" height="150" as="geometry" />
        </mxCell>
        <mxCell id="dMr1oW0Q8ULhSIMcVtM5-46" value="+Permission_ID&#xa;+Name&#xa;+Description&#xa;+IsEntityPermission" style="align=left;strokeColor=none;fillColor=none;spacingLeft=4;fontSize=12;verticalAlign=top;resizable=0;rotatable=0;part=1;" parent="dMr1oW0Q8ULhSIMcVtM5-45" vertex="1">
          <mxGeometry y="30" width="220" height="120" as="geometry" />
        </mxCell>
        <mxCell id="dMr1oW0Q8ULhSIMcVtM5-47" style="edgeStyle=orthogonalEdgeStyle;rounded=0;orthogonalLoop=1;jettySize=auto;html=1;exitX=0.5;exitY=1;exitDx=0;exitDy=0;entryX=0.5;entryY=0;entryDx=0;entryDy=0;startArrow=ERzeroToMany;startFill=0;endArrow=ERzeroToMany;endFill=0;endSize=10;startSize=10;" parent="dMr1oW0Q8ULhSIMcVtM5-1" source="dMr1oW0Q8ULhSIMcVtM5-43" target="dMr1oW0Q8ULhSIMcVtM5-45" edge="1">
          <mxGeometry relative="1" as="geometry" />
        </mxCell>
        <mxCell id="dMr1oW0Q8ULhSIMcVtM5-48" value="&lt;h1&gt;DataLens V2 Entity-Relationship Diagram DRAFT&lt;/h1&gt;&lt;p&gt;Authors: Nick Timkovich, Brian Harmon, Matt Wyatt, Abakash Samal, Brandon Sharp, Adarsh Khare, Heena Chitkara&lt;br&gt;Last Updated: October 19, 2022 (Nick re-wording Roles and Permissions)&lt;/p&gt;" style="text;html=1;strokeColor=none;fillColor=none;spacing=5;spacingTop=-20;whiteSpace=wrap;overflow=hidden;rounded=0;fontSize=16;" parent="dMr1oW0Q8ULhSIMcVtM5-1" vertex="1">
          <mxGeometry x="73.75" y="30" width="876.25" height="120" as="geometry" />
        </mxCell>
        <mxCell id="dMr1oW0Q8ULhSIMcVtM5-49" value="&lt;ul&gt;&lt;li&gt;If not shown, Many-to-Many relationships have an implied JOIN table between the entities.&lt;/li&gt;&lt;li&gt;Color Coding represents general entity collections for functional purposes.&lt;/li&gt;&lt;li&gt;Lookup and other tables are omitted for brevity&lt;/li&gt;&lt;li&gt;THIS IS A DRAFT and SUBJECT to change.&lt;/li&gt;&lt;/ul&gt;" style="text;html=1;strokeColor=none;fillColor=none;align=left;verticalAlign=top;whiteSpace=wrap;rounded=0;fontSize=16;" parent="dMr1oW0Q8ULhSIMcVtM5-1" vertex="1">
          <mxGeometry x="1140" y="20" width="530" height="150" as="geometry" />
        </mxCell>
        <mxCell id="dMr1oW0Q8ULhSIMcVtM5-50" style="edgeStyle=orthogonalEdgeStyle;rounded=0;orthogonalLoop=1;jettySize=auto;html=1;exitX=0.5;exitY=0;exitDx=0;exitDy=0;startArrow=ERzeroToMany;startFill=0;entryX=0.385;entryY=1.005;entryDx=0;entryDy=0;entryPerimeter=0;endArrow=ERmandOne;endFill=0;endSize=10;startSize=10;" parent="dMr1oW0Q8ULhSIMcVtM5-1" source="dMr1oW0Q8ULhSIMcVtM5-51" target="dMr1oW0Q8ULhSIMcVtM5-3" edge="1">
          <mxGeometry relative="1" as="geometry" />
        </mxCell>
        <mxCell id="dMr1oW0Q8ULhSIMcVtM5-51" value="Attachment" style="swimlane;childLayout=stackLayout;horizontal=1;startSize=30;horizontalStack=0;rounded=1;fontSize=14;fontStyle=0;strokeWidth=2;resizeParent=0;resizeLast=1;shadow=0;dashed=0;align=center;fillColor=#ffe6cc;strokeColor=#d79b00;" parent="dMr1oW0Q8ULhSIMcVtM5-1" vertex="1">
          <mxGeometry x="90" y="860" width="160" height="160" as="geometry" />
        </mxCell>
        <mxCell id="dMr1oW0Q8ULhSIMcVtM5-52" value="+Attachment_ID&#xa;+DataRequest_ID&#xa;+DisplayNameforUI&#xa;+FileName&#xa;+ContentType&#xa;+" style="align=left;strokeColor=none;fillColor=none;spacingLeft=4;fontSize=12;verticalAlign=top;resizable=0;rotatable=0;part=1;" parent="dMr1oW0Q8ULhSIMcVtM5-51" vertex="1">
          <mxGeometry y="30" width="160" height="130" as="geometry" />
        </mxCell>
        <mxCell id="dMr1oW0Q8ULhSIMcVtM5-53" value="ProjectType indicates a &quot;My Stuff&quot; Project or other types (&quot;Research&quot;, &quot;Collaborative&quot;, etc].&amp;nbsp; &quot;My Stuff&quot; projects are used to manage a Person&#39;s Assets." style="text;html=1;strokeColor=none;fillColor=none;align=left;verticalAlign=top;whiteSpace=wrap;rounded=0;" parent="dMr1oW0Q8ULhSIMcVtM5-1" vertex="1">
          <mxGeometry x="880" y="1470" width="190" height="140" as="geometry" />
        </mxCell>
        <mxCell id="dMr1oW0Q8ULhSIMcVtM5-54" value="The Blue relationship lines indicate that the Assignment (&quot;Association&quot;) table will contain information about the Person&#39;s role and/or level of access to specific DRs, Protocols, Cohorts, or Projects.&lt;br&gt;&lt;br&gt;Examples:&lt;br&gt;- Homer can access Protocol #IRB-00090 because he&#39;s assigned to be the &quot;OWNER&quot; for that Protocol.&lt;br&gt;- Marge can edit DR#456-J7 because she&#39;s assigned to be the &quot;CONTRIBUTOR&quot; for that DR.&lt;br&gt;&lt;br&gt;This level of permission control is entity-level permissions, as compared to system-level permissions which are tied directly to the Person." style="text;html=1;strokeColor=none;fillColor=none;align=left;verticalAlign=top;whiteSpace=wrap;rounded=0;fontColor=#0000FF;fontStyle=1;horizontal=1;" parent="dMr1oW0Q8ULhSIMcVtM5-1" vertex="1">
          <mxGeometry x="1170" y="190" width="500" height="190" as="geometry" />
        </mxCell>
        <mxCell id="dMr1oW0Q8ULhSIMcVtM5-55" value="Roles and Permissions that are tied directly to PERSON will control system-level permissions (as compared to entity-level permissions) for a role in the application.&lt;br&gt;&lt;br&gt;Examples:&amp;nbsp;&lt;br&gt;- Requester can Access Data Requests module.&lt;br&gt;- Requester can create a new Data Request.&lt;br&gt;- Admin can manage User Accounts." style="text;html=1;strokeColor=none;fillColor=none;align=left;verticalAlign=top;whiteSpace=wrap;rounded=0;fontColor=#FF0000;" parent="dMr1oW0Q8ULhSIMcVtM5-1" vertex="1">
          <mxGeometry x="1130" y="1105" width="260" height="135" as="geometry" />
        </mxCell>
        <mxCell id="dMr1oW0Q8ULhSIMcVtM5-56" value="&lt;div style=&quot;font-family: Menlo, Monaco, &amp;quot;Courier New&amp;quot;, monospace; line-height: 18px;&quot;&gt;&lt;div style=&quot;&quot;&gt;ENTITY-LEVEL ROLE EXAMPLES:&lt;/div&gt;&lt;div style=&quot;&quot;&gt;Person to Data Request Role Types&lt;/div&gt;&lt;br&gt;&lt;div style=&quot;&quot;&gt;- Person is OWNER of DataRequest (pre-defined)&lt;/div&gt;&lt;div style=&quot;&quot;&gt;- Person is CONTRIBUTOR of DataRequest&amp;nbsp;&lt;span style=&quot;background-color: initial;&quot;&gt;(pre-defined)&lt;/span&gt;&lt;/div&gt;&lt;div style=&quot;&quot;&gt;- Person is PRINCIPAL REQUESTER of DataRequest (custom)&lt;/div&gt;&lt;div style=&quot;&quot;&gt;- Person is REQUEST MANAGER of DataRequest&amp;nbsp;&lt;span style=&quot;background-color: initial;&quot;&gt;(custom)&lt;/span&gt;&lt;/div&gt;&lt;div style=&quot;&quot;&gt;- Person is RESEARCH ASSISTANT of DataRequest&amp;nbsp;&lt;span style=&quot;background-color: initial;&quot;&gt;(custom)&lt;/span&gt;&lt;/div&gt;&lt;div style=&quot;&quot;&gt;- Person is DATA ANALYST of DataRequest&amp;nbsp;&lt;span style=&quot;background-color: initial;&quot;&gt;(custom)&lt;/span&gt;&lt;/div&gt;&lt;div style=&quot;&quot;&gt;- Person is BIOSTATISTICIAN of DataRequest&amp;nbsp;&lt;span style=&quot;background-color: initial;&quot;&gt;(custom)&lt;/span&gt;&lt;/div&gt;&lt;br&gt;&lt;div style=&quot;&quot;&gt;&lt;span style=&quot;background-color: initial;&quot;&gt;Roles can be &quot;pre-defined&quot;, like &quot;OWNER&quot; or &quot;&lt;/span&gt;CONTRIBUTOR&lt;span style=&quot;background-color: initial;&quot;&gt;&quot;; or can be &quot;custom&quot;, such as &quot;Research Project X&quot; has &quot;PROJECT MANAGER&quot;, or &quot;CO-PI&quot;, that may or may not have any permissions to that specific project.&lt;/span&gt;&lt;br&gt;&lt;/div&gt;&lt;/div&gt;" style="text;html=1;strokeColor=none;fillColor=none;align=left;verticalAlign=top;whiteSpace=wrap;rounded=0;" parent="dMr1oW0Q8ULhSIMcVtM5-1" vertex="1">
          <mxGeometry x="1190" y="1530" width="460" height="400" as="geometry" />
        </mxCell>
        <mxCell id="dMr1oW0Q8ULhSIMcVtM5-57" style="edgeStyle=orthogonalEdgeStyle;rounded=0;orthogonalLoop=1;jettySize=auto;html=1;exitX=0.5;exitY=0;exitDx=0;exitDy=0;entryX=1.01;entryY=0.384;entryDx=0;entryDy=0;entryPerimeter=0;startArrow=ERoneToMany;startFill=0;endArrow=ERmandOne;endFill=0;strokeColor=#3333FF;strokeWidth=2;endSize=10;startSize=10;" parent="dMr1oW0Q8ULhSIMcVtM5-1" source="dMr1oW0Q8ULhSIMcVtM5-58" target="dMr1oW0Q8ULhSIMcVtM5-5" edge="1">
          <mxGeometry relative="1" as="geometry">
            <Array as="points">
              <mxPoint x="1000" y="251" />
            </Array>
          </mxGeometry>
        </mxCell>
        <mxCell id="dMr1oW0Q8ULhSIMcVtM5-58" value="Protocol_Assignment" style="swimlane;childLayout=stackLayout;horizontal=1;startSize=30;horizontalStack=0;rounded=1;fontSize=14;fontStyle=0;strokeWidth=2;resizeParent=0;resizeLast=1;shadow=0;dashed=0;align=center;fillColor=#dae8fc;strokeColor=#6c8ebf;" parent="dMr1oW0Q8ULhSIMcVtM5-1" vertex="1">
          <mxGeometry x="920" y="300" width="160" height="200" as="geometry" />
        </mxCell>
        <mxCell id="dMr1oW0Q8ULhSIMcVtM5-59" value="+Protocol_ID&#xa;+Person_ID&#xa;+Role_ID&#xa;+other info about a specific&#xa;  Person assigned to a &#xa;  specific Protocol" style="align=left;strokeColor=none;fillColor=none;spacingLeft=4;fontSize=12;verticalAlign=top;resizable=0;rotatable=0;part=1;" parent="dMr1oW0Q8ULhSIMcVtM5-58" vertex="1">
          <mxGeometry y="30" width="160" height="170" as="geometry" />
        </mxCell>
        <mxCell id="dMr1oW0Q8ULhSIMcVtM5-60" style="edgeStyle=orthogonalEdgeStyle;rounded=0;orthogonalLoop=1;jettySize=auto;html=1;exitX=1;exitY=0.5;exitDx=0;exitDy=0;entryX=0.75;entryY=0;entryDx=0;entryDy=0;strokeColor=#3333FF;strokeWidth=2;startArrow=ERzeroToMany;startFill=0;endArrow=ERmandOne;endFill=0;startSize=10;endSize=10;" parent="dMr1oW0Q8ULhSIMcVtM5-1" source="dMr1oW0Q8ULhSIMcVtM5-59" target="dMr1oW0Q8ULhSIMcVtM5-42" edge="1">
          <mxGeometry relative="1" as="geometry" />
        </mxCell>
        <mxCell id="dMr1oW0Q8ULhSIMcVtM5-61" value="Project_Assignment" style="swimlane;childLayout=stackLayout;horizontal=1;startSize=30;horizontalStack=0;rounded=1;fontSize=14;fontStyle=0;strokeWidth=2;resizeParent=0;resizeLast=1;shadow=0;dashed=0;align=center;fillColor=#dae8fc;strokeColor=#6c8ebf;" parent="dMr1oW0Q8ULhSIMcVtM5-1" vertex="1">
          <mxGeometry x="360" y="1330" width="160" height="200" as="geometry" />
        </mxCell>
        <mxCell id="dMr1oW0Q8ULhSIMcVtM5-62" value="+Project_ID&#xa;+Person_ID&#xa;+Role_ID&#xa;+other info about a specific&#xa;  Person assigned to a &#xa;  specific Project" style="align=left;strokeColor=none;fillColor=none;spacingLeft=4;fontSize=12;verticalAlign=top;resizable=0;rotatable=0;part=1;" parent="dMr1oW0Q8ULhSIMcVtM5-61" vertex="1">
          <mxGeometry y="30" width="160" height="170" as="geometry" />
        </mxCell>
        <mxCell id="dMr1oW0Q8ULhSIMcVtM5-63" style="edgeStyle=orthogonalEdgeStyle;rounded=0;orthogonalLoop=1;jettySize=auto;html=1;exitX=1;exitY=0.25;exitDx=0;exitDy=0;entryX=0.25;entryY=0;entryDx=0;entryDy=0;strokeColor=#3333FF;strokeWidth=2;startArrow=ERzeroToMany;startFill=0;endArrow=ERmandOne;endFill=0;startSize=10;endSize=10;" parent="dMr1oW0Q8ULhSIMcVtM5-1" source="dMr1oW0Q8ULhSIMcVtM5-62" target="dMr1oW0Q8ULhSIMcVtM5-14" edge="1">
          <mxGeometry relative="1" as="geometry" />
        </mxCell>
        <mxCell id="dMr1oW0Q8ULhSIMcVtM5-64" style="edgeStyle=orthogonalEdgeStyle;rounded=0;orthogonalLoop=1;jettySize=auto;html=1;exitX=0.25;exitY=1;exitDx=0;exitDy=0;entryX=1.006;entryY=0.137;entryDx=0;entryDy=0;entryPerimeter=0;strokeColor=#3333FF;strokeWidth=2;startArrow=ERmandOne;startFill=0;endArrow=ERzeroToMany;endFill=0;startSize=10;endSize=10;" parent="dMr1oW0Q8ULhSIMcVtM5-1" source="dMr1oW0Q8ULhSIMcVtM5-43" target="dMr1oW0Q8ULhSIMcVtM5-62" edge="1">
          <mxGeometry relative="1" as="geometry">
            <Array as="points">
              <mxPoint x="1469" y="1290" />
              <mxPoint x="1260" y="1290" />
              <mxPoint x="1260" y="1383" />
            </Array>
          </mxGeometry>
        </mxCell>
        <mxCell id="dMr1oW0Q8ULhSIMcVtM5-65" value="Cohort_Assignment" style="swimlane;childLayout=stackLayout;horizontal=1;startSize=30;horizontalStack=0;rounded=1;fontSize=14;fontStyle=0;strokeWidth=2;resizeParent=0;resizeLast=1;shadow=0;dashed=0;align=center;strokeColor=#6c8ebf;fillColor=#dae8fc;" parent="dMr1oW0Q8ULhSIMcVtM5-1" vertex="1">
          <mxGeometry x="810" y="680" width="160" height="200" as="geometry" />
        </mxCell>
        <mxCell id="dMr1oW0Q8ULhSIMcVtM5-66" value="+Cohort_ID&#xa;+Person_ID&#xa;+Role_ID&#xa;+other info about a specific&#xa;  Person assigned to a &#xa;  specific Cohort" style="align=left;strokeColor=none;fillColor=none;spacingLeft=4;fontSize=12;verticalAlign=top;resizable=0;rotatable=0;part=1;" parent="dMr1oW0Q8ULhSIMcVtM5-65" vertex="1">
          <mxGeometry y="30" width="160" height="170" as="geometry" />
        </mxCell>
        <mxCell id="dMr1oW0Q8ULhSIMcVtM5-67" style="edgeStyle=orthogonalEdgeStyle;rounded=0;orthogonalLoop=1;jettySize=auto;html=1;exitX=0;exitY=0.5;exitDx=0;exitDy=0;entryX=0.706;entryY=0.001;entryDx=0;entryDy=0;entryPerimeter=0;strokeColor=#3333FF;strokeWidth=2;startArrow=ERzeroToMany;startFill=0;endArrow=ERmandOne;endFill=0;startSize=10;endSize=10;" parent="dMr1oW0Q8ULhSIMcVtM5-1" source="dMr1oW0Q8ULhSIMcVtM5-66" target="dMr1oW0Q8ULhSIMcVtM5-10" edge="1">
          <mxGeometry relative="1" as="geometry" />
        </mxCell>
        <mxCell id="dMr1oW0Q8ULhSIMcVtM5-68" style="edgeStyle=orthogonalEdgeStyle;rounded=0;orthogonalLoop=1;jettySize=auto;html=1;exitX=1;exitY=0.5;exitDx=0;exitDy=0;entryX=0.25;entryY=0;entryDx=0;entryDy=0;strokeColor=#3333FF;strokeWidth=2;startArrow=ERzeroToMany;startFill=0;endArrow=ERmandOne;endFill=0;startSize=10;endSize=10;" parent="dMr1oW0Q8ULhSIMcVtM5-1" source="dMr1oW0Q8ULhSIMcVtM5-66" target="dMr1oW0Q8ULhSIMcVtM5-42" edge="1">
          <mxGeometry relative="1" as="geometry" />
        </mxCell>
        <mxCell id="dMr1oW0Q8ULhSIMcVtM5-69" value="DataRequest_Assignment" style="swimlane;childLayout=stackLayout;horizontal=1;startSize=30;horizontalStack=0;rounded=1;fontSize=14;fontStyle=0;strokeWidth=2;resizeParent=0;resizeLast=1;shadow=0;dashed=0;align=center;strokeColor=#6c8ebf;fillColor=#dae8fc;" parent="dMr1oW0Q8ULhSIMcVtM5-1" vertex="1">
          <mxGeometry x="410" y="620" width="200" height="200" as="geometry" />
        </mxCell>
        <mxCell id="dMr1oW0Q8ULhSIMcVtM5-70" value="+DataRequest_ID&#xa;+Person_ID&#xa;+Role_ID&#xa;+other info about a specific&#xa;  Person assigned to a &#xa;  specific Data Request" style="align=left;strokeColor=none;fillColor=none;spacingLeft=4;fontSize=12;verticalAlign=top;resizable=0;rotatable=0;part=1;" parent="dMr1oW0Q8ULhSIMcVtM5-69" vertex="1">
          <mxGeometry y="30" width="200" height="170" as="geometry" />
        </mxCell>
        <mxCell id="dMr1oW0Q8ULhSIMcVtM5-71" style="edgeStyle=orthogonalEdgeStyle;rounded=0;orthogonalLoop=1;jettySize=auto;html=1;exitX=1;exitY=0.75;exitDx=0;exitDy=0;entryX=0.25;entryY=0;entryDx=0;entryDy=0;strokeColor=#3333FF;strokeWidth=2;fontColor=#FFFFFF;startArrow=ERzeroToMany;startFill=0;endArrow=ERmandOne;endFill=0;startSize=10;endSize=10;" parent="dMr1oW0Q8ULhSIMcVtM5-1" source="dMr1oW0Q8ULhSIMcVtM5-70" target="dMr1oW0Q8ULhSIMcVtM5-10" edge="1">
          <mxGeometry relative="1" as="geometry" />
        </mxCell>
        <mxCell id="dMr1oW0Q8ULhSIMcVtM5-72" style="edgeStyle=orthogonalEdgeStyle;rounded=0;orthogonalLoop=1;jettySize=auto;html=1;exitX=1;exitY=0;exitDx=0;exitDy=0;entryX=0.5;entryY=0;entryDx=0;entryDy=0;strokeColor=#3333FF;strokeWidth=2;fontColor=#FFFFFF;startArrow=ERzeroToMany;startFill=0;endArrow=ERmandOne;endFill=0;startSize=10;endSize=10;" parent="dMr1oW0Q8ULhSIMcVtM5-1" source="dMr1oW0Q8ULhSIMcVtM5-70" target="dMr1oW0Q8ULhSIMcVtM5-42" edge="1">
          <mxGeometry relative="1" as="geometry">
            <Array as="points">
              <mxPoint x="1529" y="650" />
            </Array>
          </mxGeometry>
        </mxCell>
        <mxCell id="CvoWsCr7HLLSvaw1Cl41-0" value="The Green relationship lines indicate connections between the major functional entities: DataRequest, Cohort, Protocol, Project, and Asset.&amp;nbsp; Implied JOIN tables may or may not have additional columns.&lt;br&gt;&lt;br&gt;The lines are green to enhance readability of this diagram." style="text;html=1;strokeColor=none;fillColor=none;align=left;verticalAlign=top;whiteSpace=wrap;rounded=0;fontColor=#00CC00;fontStyle=1" parent="dMr1oW0Q8ULhSIMcVtM5-1" vertex="1">
          <mxGeometry x="1170" y="470" width="320" height="130" as="geometry" />
        </mxCell>
      </root>
    </mxGraphModel>
  </diagram>
</mxfile>
